<?xml version="1.0" encoding="UTF-8"?>
<!DOCTYPE svg PUBLIC "-//W3C//DTD SVG 1.1//EN" "http://www.w3.org/Graphics/SVG/1.1/DTD/svg11.dtd">
<!-- Creator: CorelDRAW 2019 (64-Bit) -->
<svg xmlns="http://www.w3.org/2000/svg" xml:space="preserve" width="150.926mm" height="181.111mm" version="1.1" style="shape-rendering:geometricPrecision; text-rendering:geometricPrecision; image-rendering:optimizeQuality; fill-rule:evenodd; clip-rule:evenodd"
viewBox="0 0 150.8235 180.9887"
 xmlns:xlink="http://www.w3.org/1999/xlink"
 xmlns:xodm="http://www.corel.com/coreldraw/odm/2003">
 <defs>
  <style type="text/css">
   <![CDATA[
    .fil0 {fill:#FBBF44}
    .fil1 {fill:#ED701E}
    .fil2 {fill:#E74923}
    .fil4 {fill:#0BB5DC}
    .fil3 {fill:#383181}
    .fil5 {fill:white}
   ]]>
  </style>
 </defs>
 <g id="Layer_x0020_1">
  <metadata id="CorelCorpID_0Corel-Layer"/>
  <g id="_723870880">
   <path class="fil0" d="M-0 6.0155c0,-3.3076 2.7074,-6.0155 6.0157,-6.0155l138.7923 0c3.3514,0 6.0154,2.708 6.0154,6.0155l0 168.9576c0,3.3515 -2.7066,6.0156 -6.0154,6.0156l-138.7923 0c-3.3517,0 -6.0157,-2.7068 -6.0157,-6.0156l0 -168.9576z"/>
   <path class="fil1" d="M13.5784 14.3518c0,-1.6758 1.3322,-3.0084 3.0079,-3.0084l117.6942 0c1.6758,0 3.0084,1.3326 3.0084,3.0084l0 152.3711c0,1.6761 -1.3326,3.0079 -3.0084,3.0079l-117.6942 0c-1.6757,0 -3.0079,-1.3318 -3.0079,-3.0079l0 -152.3711z"/>
   <path class="fil2" d="M20.3675 17.3602c0,-0.8171 0.6875,-1.5049 1.5043,-1.5049l107.1236 0c0.8158,0 1.5036,0.6877 1.5036,1.5049l0 146.3548c0,0.8166 -0.6877,1.5042 -1.5036,1.5042l-107.1236 0c-0.8167,0 -1.5043,-0.6875 -1.5043,-1.5042l0 -146.3548z"/>
   <path class="fil3" d="M24.1488 18.8638c0,-0.43 0.3438,-0.7732 0.7735,-0.7732l101.0658 0c0.4287,0 0.7732,0.3432 0.7732,0.7732l0 143.3043c0,0.4297 -0.3445,0.7736 -0.7732,0.7736l-101.1085 0c-0.4297,0 -0.7735,-0.3439 -0.7735,-0.7736l0 -143.3043 0.0428 0z"/>
   <polygon class="fil4" points="32.4422,108.6279 118.4251,108.6279 118.4251,22.6453 32.4422,22.6453 "/>
   <polygon class="fil3" points="36.2237,106.3504 114.6865,106.3504 114.6865,24.8796 36.2237,24.8796 "/>
   <path class="fil5" d="M117.7375 119.9288l-9.3679 0 0 27.2432 9.3679 0 0 -27.2432zm-22.1727 13.6215l0 0c0,5.2425 -0.1286,7.7347 -3.1366,7.7347l-0.7734 0 0 -15.3831 0.7734 0c3.008,-0.0433 3.1366,2.4922 3.1366,7.6484zm9.4106 0l0 0c0,-13.2345 -4.4689,-13.5782 -13.9654,-13.5782l-8.7226 0 0 27.2427 8.7226 0c9.5392,-0.0428 13.9654,-0.4297 13.9654,-13.6644zm-25.4813 13.6217l0 0 -0.9022 -7.3912 -6.7463 0 0 -19.852 -9.3674 0 0 27.2432 17.0159 0zm-19.2504 0l0 0 -7.8637 -27.2432 -11.6444 0 -7.9929 27.2432 9.368 0 0.7301 -3.137 6.5746 0 0.7736 3.137 10.0547 0zm-11.9454 -8.895l0 0 -4.3402 0 2.1484 -11.0434 2.1917 11.0434z"/>
   <polygon class="fil4" points="64.5408,104.116 59.6849,104.116 81.2988,27.1573 86.1973,27.1573 "/>
   <polygon class="fil4" points="56.4193,104.116 51.5206,104.116 73.1346,27.1573 78.0332,27.1573 "/>
   <polygon class="fil4" points="48.2551,104.116 43.3564,104.116 65.0133,27.1573 69.9116,27.1573 "/>
   <polygon class="fil4" points="74.7675,79.1938 76.0565,74.6816 110.1316,74.6816 110.1316,79.1938 "/>
   <polygon class="fil4" points="76.9159,71.6738 78.1622,67.1191 110.1316,67.1191 110.1316,71.6738 "/>
   <polygon class="fil4" points="72.6622,86.7564 73.9082,82.2015 110.1316,82.2015 110.1316,86.7564 "/>
  </g>
 </g>
</svg>
