<?xml version="1.0" encoding="utf-8"?>
<!-- Generator: Adobe Illustrator 22.0.0, SVG Export Plug-In . SVG Version: 6.00 Build 0)  -->
<svg version="1.1" id="Layer_1" xmlns="http://www.w3.org/2000/svg" xmlns:xlink="http://www.w3.org/1999/xlink" x="0px" y="0px"
	 viewBox="0 0 880 319.7" style="enable-background:new 0 0 880 319.7;" xml:space="preserve">
<style type="text/css">
	.st0{fill:#008D36;}
	.st1{fill:#FFFFFF;}
</style>
<g>
	<g>
		<path class="st0" d="M31.6,272.5c3.1,0,5.3,0.7,6.8,2.1c1.5,1.4,2.2,3.5,2.2,6.3c0,1.5-0.4,2.8-1.1,3.9c-0.7,1.1-1.8,2-3.2,2.6
			s-3.2,0.9-5.3,0.9l0.2-2.1c1,0,2.1,0.1,3.4,0.4c1.3,0.3,2.5,0.7,3.7,1.4s2.2,1.6,3,2.9c0.8,1.2,1.2,2.8,1.2,4.7
			c0,2.1-0.3,3.8-1,5.2c-0.7,1.3-1.6,2.4-2.7,3.1c-1.1,0.7-2.3,1.2-3.6,1.5c-1.3,0.3-2.5,0.4-3.7,0.4H19.5c-0.8,0-1.5-0.3-2.1-0.8
			c-0.6-0.6-0.8-1.2-0.8-2.1v-27.6c0-0.8,0.3-1.5,0.8-2.1c0.6-0.6,1.2-0.8,2.1-0.8L31.6,272.5L31.6,272.5z M30.7,278.1h-8.5l0.6-0.8
			v8.6l-0.6-0.4h8.6c0.9,0,1.7-0.3,2.5-0.9c0.7-0.6,1.1-1.5,1.1-2.6c0-1.4-0.3-2.4-1-3C32.7,278.4,31.8,278.1,30.7,278.1z
			 M31.1,291.2h-8.7l0.4-0.4v10.1l-0.5-0.5h9.1c1.5,0,2.6-0.4,3.5-1.2c0.9-0.8,1.3-1.9,1.3-3.5c0-1.4-0.3-2.5-0.9-3.1
			c-0.6-0.6-1.3-1-2.1-1.2C32.5,291.3,31.8,291.2,31.1,291.2z"/>
		<path class="st0" d="M66.4,280.3c0.8,0,1.5,0.3,2.1,0.8c0.5,0.6,0.8,1.2,0.8,2.1v12.1c0,3.4-0.9,6-2.8,8c-1.9,2-4.6,3-8.1,3
			c-3.5,0-6.2-1-8.1-3c-1.9-2-2.8-4.6-2.8-8v-12.1c0-0.8,0.3-1.5,0.8-2.1c0.5-0.6,1.2-0.8,2.1-0.8c0.8,0,1.5,0.3,2.1,0.8
			c0.5,0.6,0.8,1.2,0.8,2.1v12.1c0,1.9,0.4,3.4,1.3,4.3c0.9,0.9,2.1,1.4,3.9,1.4c1.7,0,3.1-0.5,3.9-1.4c0.9-0.9,1.3-2.4,1.3-4.3
			v-12.1c0-0.8,0.3-1.5,0.8-2.1C64.8,280.6,65.5,280.3,66.4,280.3z"/>
		<path class="st0" d="M73.9,301.9c-0.3-0.4-0.5-1-0.4-1.7c0-0.7,0.4-1.3,1.2-1.8c0.5-0.3,1-0.5,1.6-0.4c0.6,0,1.1,0.3,1.7,0.9
			c0.9,0.9,1.9,1.6,2.9,2.1c1,0.5,2.3,0.8,3.8,0.8c0.5,0,1-0.1,1.6-0.2c0.6-0.1,1.1-0.4,1.5-0.8s0.6-1,0.6-1.8
			c0-0.7-0.2-1.3-0.7-1.7c-0.5-0.4-1.1-0.8-1.9-1c-0.8-0.3-1.6-0.6-2.6-0.8c-1-0.3-2-0.6-3-1c-1-0.3-2-0.8-2.8-1.4
			c-0.9-0.6-1.6-1.3-2.1-2.2c-0.5-0.9-0.8-2.1-0.8-3.5c0-1.6,0.4-2.9,1.3-4.1c0.9-1.1,2-2,3.5-2.6c1.4-0.6,2.9-0.9,4.5-0.9
			c1,0,2,0.1,3.1,0.4c1.1,0.2,2.1,0.6,3.1,1.1c1,0.5,1.8,1.2,2.5,2.1c0.3,0.5,0.6,1,0.6,1.7c0.1,0.7-0.2,1.3-0.9,1.8
			c-0.5,0.4-1,0.5-1.7,0.5s-1.2-0.3-1.6-0.6c-0.5-0.7-1.3-1.3-2.2-1.7c-0.9-0.4-1.9-0.6-3.1-0.6c-0.5,0-1,0.1-1.5,0.2
			c-0.6,0.1-1,0.4-1.5,0.7c-0.4,0.4-0.6,0.9-0.6,1.7c0,0.7,0.2,1.3,0.7,1.7s1.1,0.8,1.9,1c0.8,0.3,1.7,0.5,2.6,0.8
			c1,0.3,1.9,0.6,2.9,0.9c1,0.4,1.9,0.8,2.7,1.4c0.8,0.6,1.5,1.3,2,2.2c0.5,0.9,0.8,2.1,0.8,3.5c0,1.6-0.5,3-1.4,4.1
			c-1,1.1-2.1,2-3.6,2.6c-1.4,0.6-2.9,0.9-4.4,0.9c-1.9,0-3.8-0.3-5.6-1C76.7,304.7,75.2,303.6,73.9,301.9z"/>
		<path class="st0" d="M100.9,277.2c-1.1,0-1.8-0.2-2.3-0.5c-0.4-0.3-0.7-1-0.7-1.9V274c0-0.9,0.2-1.6,0.7-1.9
			c0.5-0.3,1.2-0.5,2.3-0.5c1.1,0,1.9,0.2,2.3,0.5c0.4,0.4,0.7,1,0.7,1.9v0.9c0,0.9-0.2,1.6-0.7,1.9
			C102.8,277.1,102,277.2,100.9,277.2z M103.8,303c0,0.8-0.3,1.5-0.8,2.1c-0.5,0.6-1.2,0.8-2.1,0.8c-0.8,0-1.5-0.3-2.1-0.8
			c-0.5-0.6-0.8-1.2-0.8-2.1v-19.7c0-0.8,0.3-1.5,0.8-2.1c0.5-0.6,1.2-0.8,2.1-0.8c0.8,0,1.5,0.3,2.1,0.8c0.5,0.6,0.8,1.2,0.8,2.1
			V303z"/>
		<path class="st0" d="M123.3,279.9c2.4,0,4.1,0.5,5.4,1.5c1.2,1,2.1,2.3,2.5,3.9c0.5,1.6,0.7,3.5,0.7,5.5V303
			c0,0.8-0.3,1.5-0.8,2.1c-0.5,0.6-1.2,0.8-2.1,0.8c-0.8,0-1.5-0.3-2.1-0.8c-0.5-0.6-0.8-1.2-0.8-2.1v-12.2c0-1-0.1-2-0.4-2.8
			c-0.3-0.8-0.8-1.5-1.5-2c-0.7-0.5-1.7-0.8-3-0.8c-1.3,0-2.3,0.3-3.2,0.8c-0.9,0.5-1.5,1.2-2,2c-0.5,0.8-0.7,1.8-0.7,2.8V303
			c0,0.8-0.3,1.5-0.8,2.1c-0.5,0.6-1.2,0.8-2.1,0.8c-0.8,0-1.5-0.3-2.1-0.8c-0.5-0.6-0.8-1.2-0.8-2.1v-19.7c0-0.8,0.3-1.5,0.8-2.1
			c0.5-0.6,1.2-0.8,2.1-0.8c0.8,0,1.5,0.3,2.1,0.8c0.5,0.6,0.8,1.2,0.8,2.1v2l-0.7-0.1c0.3-0.5,0.7-1.1,1.2-1.7
			c0.5-0.6,1.2-1.2,1.9-1.7c0.7-0.5,1.6-1,2.5-1.3C121.2,280,122.2,279.9,123.3,279.9z"/>
		<path class="st0" d="M150.1,306.4c-2.7,0-5.1-0.6-7-1.7c-2-1.1-3.5-2.7-4.6-4.6s-1.6-4.1-1.6-6.6c0-2.9,0.6-5.3,1.7-7.3
			c1.2-2,2.7-3.6,4.6-4.7c1.9-1.1,3.9-1.6,6-1.6c1.6,0,3.2,0.3,4.6,1c1.4,0.7,2.7,1.6,3.8,2.7c1.1,1.2,2,2.5,2.6,4
			c0.7,1.5,1,3.1,1,4.9c0,0.8-0.3,1.4-0.9,1.9c-0.6,0.5-1.2,0.7-2,0.7h-18.2l-1.4-4.8h17.5l-1,1V290c-0.1-0.9-0.4-1.8-1-2.5
			c-0.6-0.7-1.3-1.3-2.2-1.7c-0.9-0.4-1.8-0.6-2.8-0.6c-1,0-1.8,0.1-2.7,0.4c-0.8,0.3-1.5,0.7-2.1,1.3c-0.6,0.6-1.1,1.4-1.4,2.4
			s-0.5,2.3-0.5,3.9c0,1.7,0.4,3.2,1.1,4.4c0.7,1.2,1.6,2.1,2.8,2.7c1.1,0.6,2.3,0.9,3.6,0.9c1.2,0,2.1-0.1,2.8-0.3s1.3-0.4,1.7-0.7
			c0.4-0.3,0.8-0.5,1.2-0.7c0.6-0.3,1.1-0.4,1.6-0.4c0.7,0,1.3,0.2,1.7,0.7c0.5,0.5,0.7,1,0.7,1.7c0,0.9-0.4,1.6-1.3,2.3
			c-0.8,0.7-2,1.3-3.5,1.8C153.3,306.1,151.7,306.4,150.1,306.4z"/>
		<path class="st0" d="M164.8,301.9c-0.3-0.4-0.5-1-0.4-1.7c0-0.7,0.4-1.3,1.2-1.8c0.5-0.3,1-0.5,1.6-0.4c0.6,0,1.1,0.3,1.7,0.9
			c0.9,0.9,1.9,1.6,2.9,2.1c1,0.5,2.3,0.8,3.8,0.8c0.5,0,1-0.1,1.6-0.2c0.6-0.1,1.1-0.4,1.5-0.8c0.4-0.4,0.6-1,0.6-1.8
			c0-0.7-0.2-1.3-0.7-1.7c-0.5-0.4-1.1-0.8-1.9-1c-0.8-0.3-1.6-0.6-2.6-0.8c-1-0.3-2-0.6-3-1c-1-0.3-2-0.8-2.8-1.4
			c-0.9-0.6-1.6-1.3-2.1-2.2c-0.5-0.9-0.8-2.1-0.8-3.5c0-1.6,0.4-2.9,1.3-4.1c0.9-1.1,2-2,3.5-2.6c1.4-0.6,2.9-0.9,4.5-0.9
			c1,0,2,0.1,3.1,0.4c1.1,0.2,2.1,0.6,3.1,1.1c1,0.5,1.8,1.2,2.5,2.1c0.3,0.5,0.6,1,0.6,1.7c0.1,0.7-0.2,1.3-0.9,1.8
			c-0.5,0.4-1,0.5-1.7,0.5s-1.2-0.3-1.6-0.6c-0.5-0.7-1.3-1.3-2.2-1.7c-0.9-0.4-1.9-0.6-3.1-0.6c-0.5,0-1,0.1-1.5,0.2
			c-0.6,0.1-1,0.4-1.5,0.7c-0.4,0.4-0.6,0.9-0.6,1.7c0,0.7,0.2,1.3,0.7,1.7c0.5,0.4,1.1,0.8,1.9,1c0.8,0.3,1.7,0.5,2.6,0.8
			c1,0.3,1.9,0.6,2.9,0.9c1,0.4,1.9,0.8,2.7,1.4c0.8,0.6,1.5,1.3,2,2.2c0.5,0.9,0.8,2.1,0.8,3.5c0,1.6-0.5,3-1.4,4.1
			c-1,1.1-2.1,2-3.6,2.6c-1.4,0.6-2.9,0.9-4.4,0.9c-1.9,0-3.8-0.3-5.6-1C167.6,304.7,166,303.6,164.8,301.9z"/>
		<path class="st0" d="M187.8,301.9c-0.3-0.4-0.5-1-0.4-1.7c0-0.7,0.4-1.3,1.2-1.8c0.5-0.3,1-0.5,1.6-0.4c0.6,0,1.1,0.3,1.7,0.9
			c0.9,0.9,1.9,1.6,2.9,2.1c1,0.5,2.3,0.8,3.8,0.8c0.5,0,1-0.1,1.6-0.2c0.6-0.1,1.1-0.4,1.5-0.8s0.6-1,0.6-1.8
			c0-0.7-0.2-1.3-0.7-1.7c-0.5-0.4-1.1-0.8-1.9-1c-0.8-0.3-1.6-0.6-2.6-0.8c-1-0.3-2-0.6-3-1c-1-0.3-2-0.8-2.8-1.4
			c-0.9-0.6-1.6-1.3-2.1-2.2c-0.5-0.9-0.8-2.1-0.8-3.5c0-1.6,0.4-2.9,1.3-4.1c0.9-1.1,2-2,3.5-2.6c1.4-0.6,2.9-0.9,4.5-0.9
			c1,0,2,0.1,3.1,0.4c1.1,0.2,2.1,0.6,3.1,1.1c1,0.5,1.8,1.2,2.5,2.1c0.3,0.5,0.6,1,0.6,1.7c0.1,0.7-0.2,1.3-0.9,1.8
			c-0.5,0.4-1,0.5-1.7,0.5s-1.2-0.3-1.6-0.6c-0.5-0.7-1.3-1.3-2.2-1.7c-0.9-0.4-1.9-0.6-3.1-0.6c-0.5,0-1,0.1-1.5,0.2
			c-0.6,0.1-1,0.4-1.5,0.7c-0.4,0.4-0.6,0.9-0.6,1.7c0,0.7,0.2,1.3,0.7,1.7c0.5,0.4,1.1,0.8,1.9,1c0.8,0.3,1.7,0.5,2.6,0.8
			c1,0.3,1.9,0.6,2.9,0.9c1,0.4,1.9,0.8,2.7,1.4c0.8,0.6,1.5,1.3,2,2.2c0.5,0.9,0.8,2.1,0.8,3.5c0,1.6-0.5,3-1.4,4.1
			c-1,1.1-2.1,2-3.6,2.6c-1.4,0.6-2.9,0.9-4.4,0.9c-1.9,0-3.8-0.3-5.6-1C190.6,304.7,189,303.6,187.8,301.9z"/>
		<path class="st0" d="M236.8,306.4c-2.2,0-4.2-0.3-6-0.8c-1.8-0.6-3.5-1.5-5.1-2.9c-0.4-0.4-0.7-0.7-1-1.2
			c-0.2-0.4-0.3-0.9-0.3-1.3c0-0.7,0.3-1.4,0.8-1.9c0.5-0.6,1.2-0.8,2-0.8c0.6,0,1.1,0.2,1.6,0.6c1.2,1,2.4,1.7,3.6,2.2
			c1.2,0.5,2.7,0.8,4.4,0.8c1.2,0,2.3-0.2,3.2-0.5c1-0.4,1.8-0.9,2.4-1.5c0.6-0.6,0.9-1.3,0.9-2.1c0-1-0.3-1.8-0.9-2.4
			c-0.6-0.7-1.4-1.2-2.6-1.7c-1.2-0.5-2.7-0.8-4.5-1.1c-1.7-0.3-3.2-0.6-4.5-1.2c-1.3-0.5-2.4-1.2-3.3-2c-0.9-0.8-1.5-1.8-2-2.9
			c-0.4-1.1-0.7-2.3-0.7-3.7c0-2.1,0.5-3.8,1.6-5.3c1.1-1.5,2.5-2.6,4.3-3.3s3.8-1.1,6-1.1c2.1,0,4,0.3,5.7,0.9
			c1.8,0.6,3.2,1.4,4.3,2.4c0.9,0.7,1.4,1.6,1.4,2.5c0,0.7-0.3,1.3-0.8,1.9s-1.2,0.9-1.9,0.9c-0.5,0-0.9-0.1-1.3-0.4
			c-0.5-0.4-1.2-0.9-2.1-1.3c-0.9-0.4-1.8-0.7-2.7-1c-1-0.3-1.8-0.4-2.7-0.4c-1.4,0-2.5,0.2-3.5,0.5c-0.9,0.4-1.6,0.8-2.1,1.4
			c-0.5,0.6-0.7,1.3-0.7,2.1c0,1,0.3,1.7,0.8,2.4c0.6,0.6,1.4,1.1,2.4,1.5c1,0.4,2.3,0.7,3.8,1c1.9,0.4,3.6,0.8,5,1.2
			c1.4,0.5,2.6,1.1,3.6,1.8c1,0.7,1.7,1.7,2.1,2.8c0.5,1.1,0.7,2.5,0.7,4.1c0,2.1-0.6,3.8-1.7,5.3c-1.1,1.5-2.6,2.6-4.5,3.4
			C241,306,239,306.4,236.8,306.4z"/>
		<path class="st0" d="M278.8,293.1c0,2.6-0.6,4.9-1.7,6.9c-1.2,2-2.7,3.5-4.7,4.7c-2,1.1-4.1,1.7-6.6,1.7c-2.4,0-4.6-0.6-6.6-1.7
			c-2-1.1-3.5-2.7-4.7-4.7c-1.2-2-1.7-4.3-1.7-6.9c0-2.6,0.6-4.9,1.7-6.9c1.2-2,2.7-3.5,4.7-4.7c2-1.1,4.1-1.7,6.6-1.7
			c2.4,0,4.6,0.6,6.6,1.7c2,1.1,3.5,2.7,4.7,4.7C278.3,288.2,278.8,290.5,278.8,293.1z M273.1,293.1c0-1.6-0.3-3-1-4.2
			c-0.7-1.2-1.5-2.1-2.6-2.8c-1.1-0.7-2.3-1-3.6-1c-1.3,0-2.6,0.3-3.6,1c-1.1,0.7-2,1.6-2.6,2.8c-0.7,1.2-1,2.6-1,4.2
			c0,1.6,0.3,3,1,4.2c0.7,1.2,1.5,2.1,2.6,2.8c1.1,0.7,2.3,1,3.6,1c1.3,0,2.6-0.3,3.6-1c1.1-0.7,2-1.6,2.6-2.8
			C272.8,296.1,273.1,294.7,273.1,293.1z"/>
		<path class="st0" d="M295.2,279.9c1.8,0,3.4,0.2,4.7,0.6c1.4,0.4,2.4,0.9,3.1,1.6c0.7,0.7,1.1,1.5,1.1,2.5c0,0.6-0.2,1.2-0.6,1.8
			c-0.4,0.6-0.9,0.8-1.7,0.8c-0.5,0-0.9-0.1-1.3-0.2c-0.3-0.1-0.6-0.3-0.9-0.5c-0.3-0.2-0.6-0.4-0.9-0.6c-0.3-0.2-0.8-0.3-1.5-0.5
			c-0.7-0.1-1.1-0.2-1.5-0.2c-1.6,0-3,0.4-4.1,1c-1.1,0.7-2,1.6-2.6,2.8c-0.6,1.2-0.9,2.6-0.9,4.1c0,1.5,0.3,2.9,0.9,4.1
			c0.6,1.2,1.5,2.1,2.6,2.8c1.1,0.7,2.4,1,3.8,1c0.8,0,1.5,0,2.1-0.1c0.6-0.1,1-0.2,1.4-0.4c0.4-0.3,0.8-0.5,1.2-0.8
			s0.9-0.4,1.6-0.4c0.8,0,1.5,0.3,1.9,0.8c0.4,0.5,0.7,1.2,0.7,1.9c0,0.8-0.4,1.5-1.3,2.2c-0.9,0.7-2.1,1.2-3.5,1.6
			c-1.4,0.4-3,0.6-4.7,0.6c-2.5,0-4.7-0.6-6.5-1.7c-1.8-1.2-3.3-2.7-4.3-4.7c-1-2-1.5-4.2-1.5-6.7c0-2.6,0.5-4.9,1.6-6.9
			c1.1-2,2.5-3.5,4.4-4.7C290.6,280.4,292.8,279.9,295.2,279.9z"/>
		<path class="st0" d="M311.1,277.2c-1.1,0-1.8-0.2-2.3-0.5c-0.4-0.3-0.7-1-0.7-1.9V274c0-0.9,0.2-1.6,0.7-1.9
			c0.5-0.3,1.2-0.5,2.3-0.5c1.1,0,1.9,0.2,2.3,0.5c0.4,0.4,0.7,1,0.7,1.9v0.9c0,0.9-0.2,1.6-0.7,1.9
			C313,277.1,312.2,277.2,311.1,277.2z M314.1,303c0,0.8-0.3,1.5-0.8,2.1c-0.5,0.6-1.2,0.8-2.1,0.8s-1.5-0.3-2.1-0.8
			c-0.5-0.6-0.8-1.2-0.8-2.1v-19.7c0-0.8,0.3-1.5,0.8-2.1c0.5-0.6,1.2-0.8,2.1-0.8c0.8,0,1.5,0.3,2.1,0.8c0.5,0.6,0.8,1.2,0.8,2.1
			V303z"/>
		<path class="st0" d="M340.8,279.9c0.8,0,1.5,0.3,2.1,0.8c0.5,0.5,0.8,1.2,0.8,2.1V303c0,0.8-0.3,1.5-0.8,2.1
			c-0.5,0.6-1.2,0.8-2.1,0.8s-1.5-0.3-2.1-0.8c-0.5-0.6-0.8-1.2-0.8-2.1v-2.3l1,0.4c0,0.4-0.2,0.9-0.7,1.5c-0.4,0.6-1,1.2-1.8,1.7
			c-0.8,0.6-1.7,1.1-2.7,1.5c-1,0.4-2.2,0.6-3.4,0.6c-2.2,0-4.2-0.6-6-1.7c-1.8-1.1-3.2-2.7-4.2-4.7c-1-2-1.6-4.3-1.6-6.8
			c0-2.6,0.5-4.9,1.6-6.9c1-2,2.4-3.5,4.2-4.7c1.7-1.1,3.7-1.7,5.8-1.7c1.4,0,2.6,0.2,3.8,0.6c1.1,0.4,2.1,0.9,3,1.6
			c0.8,0.6,1.5,1.3,2,1.9c0.5,0.7,0.7,1.2,0.7,1.6l-1.7,0.6v-3.5c0-0.8,0.3-1.5,0.8-2.1C339.3,280.2,340,279.9,340.8,279.9z
			 M331.2,301.1c1.4,0,2.6-0.3,3.7-1c1-0.7,1.9-1.7,2.5-2.9c0.6-1.2,0.9-2.6,0.9-4.1c0-1.5-0.3-2.9-0.9-4.1
			c-0.6-1.2-1.4-2.2-2.5-2.9c-1-0.7-2.3-1-3.7-1c-1.4,0-2.6,0.4-3.6,1c-1,0.7-1.9,1.7-2.5,2.9c-0.6,1.2-0.9,2.6-0.9,4.1
			c0,1.5,0.3,2.8,0.9,4.1c0.6,1.2,1.4,2.2,2.5,2.9C328.6,300.8,329.8,301.1,331.2,301.1z"/>
		<path class="st0" d="M356.1,303c0,0.8-0.3,1.5-0.8,2.1c-0.6,0.6-1.2,0.8-2.1,0.8c-0.8,0-1.5-0.3-2-0.8c-0.5-0.6-0.8-1.2-0.8-2.1
			v-29.5c0-0.8,0.3-1.5,0.8-2.1c0.6-0.6,1.2-0.8,2.1-0.8s1.5,0.3,2,0.8c0.5,0.6,0.8,1.2,0.8,2.1L356.1,303L356.1,303z"/>
		<path class="st0" d="M400,274.1c0.8,0.4,1.3,1.1,1.5,2c0.1,0.9-0.1,1.7-0.7,2.4c-0.4,0.6-0.9,0.9-1.6,1c-0.7,0.1-1.3-0.1-2-0.4
			c-0.8-0.3-1.6-0.6-2.4-0.8c-0.8-0.2-1.7-0.3-2.6-0.3c-1.7,0-3.3,0.3-4.6,0.8c-1.4,0.5-2.5,1.3-3.5,2.3c-1,1-1.7,2.2-2.2,3.6
			c-0.5,1.4-0.7,2.9-0.7,4.5c0,1.9,0.3,3.6,0.8,5.1c0.6,1.4,1.3,2.6,2.3,3.6c1,1,2.1,1.7,3.5,2.1c1.3,0.5,2.8,0.7,4.3,0.7
			c0.9,0,1.7-0.1,2.6-0.2c0.9-0.2,1.7-0.4,2.5-0.9c0.7-0.3,1.3-0.4,2-0.3c0.7,0.1,1.2,0.4,1.6,1c0.6,0.8,0.9,1.6,0.7,2.5
			c-0.2,0.8-0.7,1.5-1.5,1.8c-0.8,0.4-1.7,0.8-2.6,1c-0.9,0.3-1.8,0.5-2.6,0.6c-0.9,0.1-1.8,0.2-2.7,0.2c-2.3,0-4.5-0.4-6.5-1.1
			c-2.1-0.7-3.9-1.8-5.5-3.2c-1.6-1.4-2.9-3.2-3.8-5.4c-0.9-2.1-1.4-4.6-1.4-7.5c0-2.4,0.4-4.7,1.3-6.8c0.8-2.1,2-3.9,3.6-5.4
			c1.5-1.5,3.4-2.7,5.5-3.5c2.1-0.8,4.4-1.3,6.9-1.3c1.4,0,2.8,0.2,4.1,0.5C397.6,273,398.8,273.5,400,274.1z"/>
		<path class="st0" d="M430.8,293.1c0,2.6-0.6,4.9-1.7,6.9c-1.2,2-2.7,3.5-4.7,4.7c-2,1.1-4.1,1.7-6.6,1.7c-2.4,0-4.6-0.6-6.6-1.7
			c-2-1.1-3.5-2.7-4.7-4.7c-1.2-2-1.7-4.3-1.7-6.9c0-2.6,0.6-4.9,1.7-6.9c1.2-2,2.7-3.5,4.7-4.7c2-1.1,4.1-1.7,6.6-1.7
			c2.4,0,4.6,0.6,6.6,1.7c2,1.1,3.5,2.7,4.7,4.7C430.2,288.2,430.8,290.5,430.8,293.1z M425.1,293.1c0-1.6-0.3-3-1-4.2
			c-0.7-1.2-1.5-2.1-2.6-2.8c-1.1-0.7-2.3-1-3.6-1c-1.3,0-2.6,0.3-3.6,1c-1.1,0.7-2,1.6-2.6,2.8c-0.7,1.2-1,2.6-1,4.2
			c0,1.6,0.3,3,1,4.2c0.7,1.2,1.5,2.1,2.6,2.8c1.1,0.7,2.3,1,3.6,1c1.3,0,2.6-0.3,3.6-1c1.1-0.7,2-1.6,2.6-2.8
			C424.8,296.1,425.1,294.7,425.1,293.1z"/>
		<path class="st0" d="M449.2,279.9c2.5,0,4.4,0.6,5.6,1.8c1.2,1.2,2,2.8,2.4,4.7l-0.8-0.4l0.4-0.8c0.4-0.7,1-1.5,1.8-2.4
			c0.8-0.8,1.8-1.6,2.9-2.1c1.1-0.6,2.4-0.9,3.8-0.9c2.3,0,4,0.5,5.2,1.5c1.2,1,2,2.3,2.5,3.9c0.4,1.6,0.7,3.5,0.7,5.5V303
			c0,0.8-0.3,1.5-0.8,2.1c-0.5,0.6-1.2,0.8-2.1,0.8c-0.8,0-1.5-0.3-2.1-0.8c-0.5-0.6-0.8-1.2-0.8-2.1v-12.2c0-1-0.1-2-0.4-2.8
			c-0.3-0.8-0.7-1.5-1.4-2c-0.7-0.5-1.6-0.8-2.9-0.8c-1.2,0-2.2,0.3-3.1,0.8c-0.9,0.5-1.5,1.2-1.9,2s-0.6,1.8-0.6,2.8V303
			c0,0.8-0.3,1.5-0.8,2.1c-0.5,0.6-1.2,0.8-2.1,0.8s-1.5-0.3-2.1-0.8c-0.5-0.6-0.8-1.2-0.8-2.1v-12.2c0-1-0.1-2-0.4-2.8
			c-0.3-0.8-0.7-1.5-1.4-2c-0.7-0.5-1.6-0.8-2.9-0.8c-1.2,0-2.2,0.3-3.1,0.8c-0.9,0.5-1.5,1.2-1.9,2c-0.4,0.8-0.6,1.8-0.6,2.8V303
			c0,0.8-0.3,1.5-0.8,2.1c-0.5,0.6-1.2,0.8-2.1,0.8s-1.5-0.3-2.1-0.8c-0.5-0.6-0.8-1.2-0.8-2.1v-19.7c0-0.8,0.3-1.5,0.8-2.1
			c0.5-0.6,1.2-0.8,2.1-0.8c0.8,0,1.5,0.3,2.1,0.8c0.5,0.6,0.8,1.2,0.8,2.1v2l-0.7-0.1c0.3-0.5,0.7-1.1,1.2-1.7
			c0.5-0.6,1.1-1.2,1.9-1.7c0.7-0.5,1.5-1,2.4-1.3C447.2,280,448.2,279.9,449.2,279.9z"/>
		<path class="st0" d="M493,279.9c2.2,0,4.2,0.6,6,1.7c1.8,1.1,3.2,2.7,4.2,4.7c1,2,1.5,4.3,1.5,6.9c0,2.6-0.5,4.9-1.5,6.9
			c-1,2-2.4,3.5-4.2,4.7c-1.7,1.1-3.7,1.7-5.8,1.7c-1.3,0-2.5-0.2-3.6-0.6s-2.1-0.9-2.9-1.6c-0.8-0.6-1.5-1.3-2-1.9
			c-0.5-0.7-0.7-1.2-0.7-1.6l1.5-0.6v12.5c0,0.8-0.3,1.5-0.8,2.1c-0.5,0.6-1.2,0.8-2.1,0.8s-1.5-0.3-2.1-0.8
			c-0.5-0.5-0.8-1.2-0.8-2.1v-29.2c0-0.8,0.3-1.5,0.8-2.1c0.5-0.6,1.2-0.8,2.1-0.8c0.8,0,1.5,0.3,2.1,0.8c0.5,0.6,0.8,1.2,0.8,2.1
			v2.3l-0.8-0.4c0-0.4,0.2-0.9,0.7-1.5c0.4-0.6,1-1.2,1.8-1.8c0.8-0.6,1.6-1.1,2.6-1.5C490.8,280.1,491.9,279.9,493,279.9z
			 M492.3,285.1c-1.4,0-2.6,0.4-3.7,1c-1,0.7-1.9,1.6-2.5,2.8c-0.6,1.2-0.9,2.6-0.9,4.1c0,1.5,0.3,2.9,0.9,4.1
			c0.6,1.2,1.4,2.2,2.5,2.9c1,0.7,2.3,1,3.7,1c1.4,0,2.6-0.3,3.6-1c1-0.7,1.8-1.7,2.4-2.9c0.6-1.2,0.9-2.6,0.9-4.1
			c0-1.5-0.3-2.9-0.9-4.1c-0.6-1.2-1.4-2.1-2.4-2.8C494.9,285.5,493.7,285.1,492.3,285.1z"/>
		<path class="st0" d="M516,303c0,0.8-0.3,1.5-0.8,2.1c-0.6,0.6-1.2,0.8-2.1,0.8c-0.8,0-1.5-0.3-2-0.8c-0.5-0.6-0.8-1.2-0.8-2.1
			v-29.5c0-0.8,0.3-1.5,0.8-2.1c0.6-0.6,1.2-0.8,2.1-0.8c0.8,0,1.5,0.3,2,0.8c0.5,0.6,0.8,1.2,0.8,2.1L516,303L516,303z"/>
		<path class="st0" d="M525.1,277.2c-1.1,0-1.8-0.2-2.3-0.5c-0.4-0.3-0.7-1-0.7-1.9V274c0-0.9,0.2-1.6,0.7-1.9
			c0.5-0.3,1.2-0.5,2.3-0.5c1.1,0,1.9,0.2,2.3,0.5c0.4,0.4,0.7,1,0.7,1.9v0.9c0,0.9-0.2,1.6-0.7,1.9
			C527,277.1,526.2,277.2,525.1,277.2z M528,303c0,0.8-0.3,1.5-0.8,2.1c-0.5,0.6-1.2,0.8-2.1,0.8c-0.8,0-1.5-0.3-2.1-0.8
			c-0.5-0.6-0.8-1.2-0.8-2.1v-19.7c0-0.8,0.3-1.5,0.8-2.1c0.5-0.6,1.2-0.8,2.1-0.8c0.8,0,1.5,0.3,2.1,0.8c0.5,0.6,0.8,1.2,0.8,2.1
			V303z"/>
		<path class="st0" d="M554.8,279.9c0.8,0,1.5,0.3,2.1,0.8c0.5,0.5,0.8,1.2,0.8,2.1V303c0,0.8-0.3,1.5-0.8,2.1
			c-0.5,0.6-1.2,0.8-2.1,0.8c-0.8,0-1.5-0.3-2.1-0.8c-0.5-0.6-0.8-1.2-0.8-2.1v-2.3l1,0.4c0,0.4-0.2,0.9-0.7,1.5
			c-0.4,0.6-1,1.2-1.8,1.7c-0.8,0.6-1.7,1.1-2.7,1.5c-1,0.4-2.2,0.6-3.4,0.6c-2.2,0-4.2-0.6-6-1.7c-1.8-1.1-3.2-2.7-4.2-4.7
			c-1-2-1.6-4.3-1.6-6.8c0-2.6,0.5-4.9,1.6-6.9c1-2,2.4-3.5,4.2-4.7c1.7-1.1,3.7-1.7,5.8-1.7c1.4,0,2.6,0.2,3.8,0.6
			c1.1,0.4,2.1,0.9,3,1.6c0.8,0.6,1.5,1.3,2,1.9c0.5,0.7,0.7,1.2,0.7,1.6l-1.7,0.6v-3.5c0-0.8,0.3-1.5,0.8-2.1
			C553.3,280.2,554,279.9,554.8,279.9z M545.2,301.1c1.4,0,2.6-0.3,3.7-1c1-0.7,1.9-1.7,2.5-2.9c0.6-1.2,0.9-2.6,0.9-4.1
			c0-1.5-0.3-2.9-0.9-4.1c-0.6-1.2-1.4-2.2-2.5-2.9c-1-0.7-2.3-1-3.7-1c-1.4,0-2.6,0.4-3.6,1c-1,0.7-1.9,1.7-2.5,2.9
			c-0.6,1.2-0.9,2.6-0.9,4.1c0,1.5,0.3,2.8,0.9,4.1c0.6,1.2,1.4,2.2,2.5,2.9C542.6,300.8,543.8,301.1,545.2,301.1z"/>
		<path class="st0" d="M577.5,279.9c2.4,0,4.1,0.5,5.4,1.5c1.2,1,2.1,2.3,2.5,3.9c0.5,1.6,0.7,3.5,0.7,5.5V303
			c0,0.8-0.3,1.5-0.8,2.1c-0.5,0.6-1.2,0.8-2.1,0.8c-0.8,0-1.5-0.3-2.1-0.8c-0.5-0.6-0.8-1.2-0.8-2.1v-12.2c0-1-0.1-2-0.4-2.8
			c-0.3-0.8-0.8-1.5-1.5-2c-0.7-0.5-1.7-0.8-3-0.8c-1.3,0-2.3,0.3-3.2,0.8c-0.9,0.5-1.5,1.2-2,2c-0.5,0.8-0.7,1.8-0.7,2.8V303
			c0,0.8-0.3,1.5-0.8,2.1c-0.5,0.6-1.2,0.8-2.1,0.8c-0.8,0-1.5-0.3-2.1-0.8c-0.5-0.6-0.8-1.2-0.8-2.1v-19.7c0-0.8,0.3-1.5,0.8-2.1
			c0.5-0.6,1.2-0.8,2.1-0.8c0.8,0,1.5,0.3,2.1,0.8c0.5,0.6,0.8,1.2,0.8,2.1v2l-0.7-0.1c0.3-0.5,0.7-1.1,1.2-1.7
			c0.5-0.6,1.2-1.2,1.9-1.7c0.7-0.5,1.6-1,2.5-1.3C575.4,280,576.4,279.9,577.5,279.9z"/>
		<path class="st0" d="M603.7,279.9c1.8,0,3.4,0.2,4.7,0.6c1.4,0.4,2.4,0.9,3.1,1.6c0.7,0.7,1.1,1.5,1.1,2.5c0,0.6-0.2,1.2-0.6,1.8
			c-0.4,0.6-0.9,0.8-1.7,0.8c-0.5,0-0.9-0.1-1.3-0.2c-0.3-0.1-0.6-0.3-0.9-0.5c-0.3-0.2-0.6-0.4-0.9-0.6c-0.3-0.2-0.8-0.3-1.5-0.5
			c-0.7-0.1-1.1-0.2-1.5-0.2c-1.6,0-3,0.4-4.1,1c-1.1,0.7-2,1.6-2.6,2.8c-0.6,1.2-0.9,2.6-0.9,4.1c0,1.5,0.3,2.9,0.9,4.1
			c0.6,1.2,1.5,2.1,2.6,2.8c1.1,0.7,2.4,1,3.8,1c0.8,0,1.5,0,2.1-0.1c0.6-0.1,1-0.2,1.4-0.4c0.4-0.3,0.8-0.5,1.2-0.8
			s0.9-0.4,1.6-0.4c0.8,0,1.5,0.3,1.9,0.8c0.4,0.5,0.7,1.2,0.7,1.9c0,0.8-0.4,1.5-1.3,2.2c-0.9,0.7-2.1,1.2-3.5,1.6
			c-1.4,0.4-3,0.6-4.7,0.6c-2.5,0-4.7-0.6-6.5-1.7c-1.8-1.2-3.3-2.7-4.3-4.7c-1-2-1.5-4.2-1.5-6.7c0-2.6,0.5-4.9,1.6-6.9
			c1.1-2,2.5-3.5,4.4-4.7C599,280.4,601.2,279.9,603.7,279.9z"/>
		<path class="st0" d="M629.1,306.4c-2.7,0-5.1-0.6-7-1.7c-2-1.1-3.5-2.7-4.6-4.6c-1.1-1.9-1.6-4.1-1.6-6.6c0-2.9,0.6-5.3,1.7-7.3
			c1.2-2,2.7-3.6,4.6-4.7c1.9-1.1,3.9-1.6,6-1.6c1.6,0,3.2,0.3,4.6,1c1.4,0.7,2.7,1.6,3.8,2.7c1.1,1.2,2,2.5,2.6,4
			c0.7,1.5,1,3.1,1,4.9c0,0.8-0.3,1.4-0.9,1.9c-0.6,0.5-1.2,0.7-2,0.7h-18.2l-1.4-4.8h17.5l-1,1V290c-0.1-0.9-0.4-1.8-1-2.5
			c-0.6-0.7-1.3-1.3-2.2-1.7s-1.8-0.6-2.8-0.6c-1,0-1.8,0.1-2.7,0.4c-0.8,0.3-1.5,0.7-2.1,1.3c-0.6,0.6-1.1,1.4-1.4,2.4
			s-0.5,2.3-0.5,3.9c0,1.7,0.4,3.2,1.1,4.4c0.7,1.2,1.6,2.1,2.8,2.7c1.1,0.6,2.3,0.9,3.6,0.9c1.2,0,2.1-0.1,2.8-0.3
			c0.7-0.2,1.3-0.4,1.7-0.7c0.4-0.3,0.8-0.5,1.2-0.7c0.6-0.3,1.1-0.4,1.6-0.4c0.7,0,1.3,0.2,1.7,0.7c0.5,0.5,0.7,1,0.7,1.7
			c0,0.9-0.4,1.6-1.3,2.3c-0.8,0.7-2,1.3-3.5,1.8C632.3,306.1,630.7,306.4,629.1,306.4z"/>
		<path class="st0" d="M665.1,303c0,0.8-0.3,1.5-0.9,2.1c-0.6,0.6-1.3,0.8-2.1,0.8c-0.9,0-1.6-0.3-2.1-0.8c-0.5-0.6-0.8-1.2-0.8-2.1
			v-27.6c0-0.8,0.3-1.5,0.9-2.1c0.6-0.6,1.3-0.8,2.2-0.8c0.8,0,1.4,0.3,2,0.8c0.6,0.6,0.9,1.2,0.9,2.1L665.1,303L665.1,303z"/>
		<path class="st0" d="M685.4,279.9c2.4,0,4.1,0.5,5.4,1.5c1.2,1,2.1,2.3,2.5,3.9c0.5,1.6,0.7,3.5,0.7,5.5V303
			c0,0.8-0.3,1.5-0.8,2.1c-0.5,0.6-1.2,0.8-2.1,0.8c-0.8,0-1.5-0.3-2.1-0.8c-0.5-0.6-0.8-1.2-0.8-2.1v-12.2c0-1-0.1-2-0.4-2.8
			c-0.3-0.8-0.8-1.5-1.5-2c-0.7-0.5-1.7-0.8-3-0.8c-1.3,0-2.3,0.3-3.2,0.8c-0.9,0.5-1.5,1.2-2,2c-0.5,0.8-0.7,1.8-0.7,2.8V303
			c0,0.8-0.3,1.5-0.8,2.1c-0.5,0.6-1.2,0.8-2.1,0.8c-0.8,0-1.5-0.3-2.1-0.8c-0.5-0.6-0.8-1.2-0.8-2.1v-19.7c0-0.8,0.3-1.5,0.8-2.1
			c0.5-0.6,1.2-0.8,2.1-0.8c0.8,0,1.5,0.3,2.1,0.8c0.5,0.6,0.8,1.2,0.8,2.1v2l-0.7-0.1c0.3-0.5,0.7-1.1,1.2-1.7
			c0.5-0.6,1.2-1.2,1.9-1.7c0.7-0.5,1.6-1,2.5-1.3C683.3,280,684.3,279.9,685.4,279.9z"/>
		<path class="st0" d="M702.7,277.2c-1.1,0-1.8-0.2-2.3-0.5c-0.4-0.3-0.7-1-0.7-1.9V274c0-0.9,0.2-1.6,0.7-1.9
			c0.5-0.3,1.2-0.5,2.3-0.5c1.1,0,1.9,0.2,2.3,0.5c0.4,0.4,0.7,1,0.7,1.9v0.9c0,0.9-0.2,1.6-0.7,1.9
			C704.5,277.1,703.7,277.2,702.7,277.2z M705.6,303c0,0.8-0.3,1.5-0.8,2.1c-0.5,0.6-1.2,0.8-2.1,0.8c-0.8,0-1.5-0.3-2.1-0.8
			c-0.5-0.6-0.8-1.2-0.8-2.1v-19.7c0-0.8,0.3-1.5,0.8-2.1c0.5-0.6,1.2-0.8,2.1-0.8c0.8,0,1.5,0.3,2.1,0.8c0.5,0.6,0.8,1.2,0.8,2.1
			V303z"/>
		<path class="st0" d="M711.7,280.8H723c0.8,0,1.4,0.3,1.9,0.8c0.5,0.5,0.8,1.1,0.8,1.9c0,0.7-0.3,1.3-0.8,1.8
			c-0.5,0.5-1.1,0.7-1.9,0.7h-11.3c-0.8,0-1.4-0.3-1.9-0.8c-0.5-0.5-0.8-1.1-0.8-1.9c0-0.7,0.3-1.3,0.8-1.8
			C710.3,281.1,711,280.8,711.7,280.8z M716.8,274.9c0.8,0,1.5,0.3,2,0.8s0.8,1.2,0.8,2.1V299c0,0.4,0.1,0.8,0.3,1.1
			c0.2,0.3,0.4,0.5,0.7,0.6c0.3,0.1,0.6,0.2,1,0.2c0.4,0,0.7-0.1,1-0.2c0.3-0.1,0.7-0.2,1.1-0.2c0.4,0,0.9,0.2,1.2,0.6
			c0.4,0.4,0.5,1,0.5,1.7c0,0.9-0.5,1.6-1.5,2.2c-1,0.6-2,0.9-3.1,0.9c-0.7,0-1.4-0.1-2.2-0.2c-0.8-0.1-1.6-0.4-2.3-0.8
			c-0.7-0.4-1.3-1.1-1.8-2c-0.5-0.9-0.7-2.1-0.7-3.7v-21.5c0-0.8,0.3-1.5,0.8-2.1C715.3,275.1,716,274.9,716.8,274.9z"/>
		<path class="st0" d="M733.4,277.2c-1.1,0-1.8-0.2-2.3-0.5c-0.4-0.3-0.7-1-0.7-1.9V274c0-0.9,0.2-1.6,0.7-1.9
			c0.5-0.3,1.2-0.5,2.3-0.5c1.1,0,1.9,0.2,2.3,0.5c0.4,0.4,0.7,1,0.7,1.9v0.9c0,0.9-0.2,1.6-0.7,1.9
			C735.3,277.1,734.5,277.2,733.4,277.2z M736.3,303c0,0.8-0.3,1.5-0.8,2.1c-0.5,0.6-1.2,0.8-2.1,0.8c-0.8,0-1.5-0.3-2.1-0.8
			c-0.5-0.6-0.8-1.2-0.8-2.1v-19.7c0-0.8,0.3-1.5,0.8-2.1c0.5-0.6,1.2-0.8,2.1-0.8c0.8,0,1.5,0.3,2.1,0.8c0.5,0.6,0.8,1.2,0.8,2.1
			V303z"/>
		<path class="st0" d="M763.1,279.9c0.8,0,1.5,0.3,2.1,0.8c0.5,0.5,0.8,1.2,0.8,2.1V303c0,0.8-0.3,1.5-0.8,2.1
			c-0.5,0.6-1.2,0.8-2.1,0.8c-0.8,0-1.5-0.3-2.1-0.8c-0.5-0.6-0.8-1.2-0.8-2.1v-2.3l1,0.4c0,0.4-0.2,0.9-0.7,1.5
			c-0.4,0.6-1,1.2-1.8,1.7c-0.8,0.6-1.7,1.1-2.7,1.5c-1,0.4-2.2,0.6-3.4,0.6c-2.2,0-4.2-0.6-6-1.7c-1.8-1.1-3.2-2.7-4.2-4.7
			c-1-2-1.6-4.3-1.6-6.8c0-2.6,0.5-4.9,1.6-6.9c1-2,2.4-3.5,4.2-4.7c1.7-1.1,3.7-1.7,5.8-1.7c1.4,0,2.6,0.2,3.8,0.6
			c1.1,0.4,2.1,0.9,3,1.6c0.8,0.6,1.5,1.3,2,1.9c0.5,0.7,0.7,1.2,0.7,1.6l-1.7,0.6v-3.5c0-0.8,0.3-1.5,0.8-2.1
			C761.6,280.2,762.3,279.9,763.1,279.9z M753.5,301.1c1.4,0,2.6-0.3,3.7-1c1-0.7,1.9-1.7,2.5-2.9c0.6-1.2,0.9-2.6,0.9-4.1
			c0-1.5-0.3-2.9-0.9-4.1c-0.6-1.2-1.4-2.2-2.5-2.9c-1-0.7-2.3-1-3.7-1c-1.4,0-2.6,0.4-3.6,1c-1,0.7-1.9,1.7-2.5,2.9
			c-0.6,1.2-0.9,2.6-0.9,4.1c0,1.5,0.3,2.8,0.9,4.1c0.6,1.2,1.4,2.2,2.5,2.9C750.9,300.8,752.1,301.1,753.5,301.1z"/>
		<path class="st0" d="M772.5,280.8h11.3c0.8,0,1.4,0.3,1.9,0.8c0.5,0.5,0.8,1.1,0.8,1.9c0,0.7-0.3,1.3-0.8,1.8
			c-0.5,0.5-1.1,0.7-1.9,0.7h-11.3c-0.8,0-1.4-0.3-1.9-0.8c-0.5-0.5-0.8-1.1-0.8-1.9c0-0.7,0.3-1.3,0.8-1.8
			C771.1,281.1,771.7,280.8,772.5,280.8z M777.6,274.9c0.8,0,1.5,0.3,2,0.8s0.8,1.2,0.8,2.1V299c0,0.4,0.1,0.8,0.3,1.1
			c0.2,0.3,0.4,0.5,0.7,0.6c0.3,0.1,0.6,0.2,1,0.2c0.4,0,0.7-0.1,1-0.2c0.3-0.1,0.7-0.2,1.1-0.2c0.4,0,0.9,0.2,1.2,0.6
			c0.4,0.4,0.5,1,0.5,1.7c0,0.9-0.5,1.6-1.5,2.2c-1,0.6-2,0.9-3.1,0.9c-0.7,0-1.4-0.1-2.2-0.2c-0.8-0.1-1.6-0.4-2.3-0.8
			c-0.7-0.4-1.3-1.1-1.8-2c-0.5-0.9-0.7-2.1-0.7-3.7v-21.5c0-0.8,0.3-1.5,0.8-2.1C776,275.1,776.7,274.9,777.6,274.9z"/>
		<path class="st0" d="M794.2,277.2c-1.1,0-1.8-0.2-2.3-0.5c-0.4-0.3-0.7-1-0.7-1.9V274c0-0.9,0.2-1.6,0.7-1.9
			c0.5-0.3,1.2-0.5,2.3-0.5c1.1,0,1.9,0.2,2.3,0.5c0.4,0.4,0.7,1,0.7,1.9v0.9c0,0.9-0.2,1.6-0.7,1.9
			C796,277.1,795.2,277.2,794.2,277.2z M797.1,303c0,0.8-0.3,1.5-0.8,2.1c-0.5,0.6-1.2,0.8-2.1,0.8c-0.8,0-1.5-0.3-2.1-0.8
			c-0.5-0.6-0.8-1.2-0.8-2.1v-19.7c0-0.8,0.3-1.5,0.8-2.1c0.5-0.6,1.2-0.8,2.1-0.8c0.8,0,1.5,0.3,2.1,0.8c0.5,0.6,0.8,1.2,0.8,2.1
			V303z"/>
		<path class="st0" d="M804.1,280.3c0.6,0,1.2,0.2,1.7,0.5c0.5,0.3,0.9,0.8,1.1,1.4l7,16l-1,0.5l7.2-16.5c0.5-1.3,1.4-1.9,2.5-1.8
			c0.8,0,1.4,0.2,1.9,0.7c0.5,0.5,0.7,1.1,0.7,1.8c0,0.2,0,0.5-0.1,0.7c-0.1,0.3-0.2,0.5-0.3,0.7l-8.9,19.7
			c-0.5,1.1-1.3,1.8-2.4,1.8c-0.6,0.1-1.2,0-1.7-0.3c-0.6-0.3-1-0.8-1.3-1.5l-8.9-19.7c-0.1-0.2-0.1-0.4-0.2-0.6
			c-0.1-0.3-0.1-0.6-0.1-0.9c0-0.6,0.3-1.1,0.8-1.7C802.5,280.6,803.2,280.3,804.1,280.3z"/>
		<path class="st0" d="M841.5,306.4c-2.7,0-5.1-0.6-7-1.7c-2-1.1-3.5-2.7-4.6-4.6s-1.6-4.1-1.6-6.6c0-2.9,0.6-5.3,1.7-7.3
			c1.2-2,2.7-3.6,4.6-4.7c1.9-1.1,3.9-1.6,6-1.6c1.6,0,3.2,0.3,4.6,1c1.4,0.7,2.7,1.6,3.8,2.7c1.1,1.2,2,2.5,2.6,4
			c0.7,1.5,1,3.1,1,4.9c0,0.8-0.3,1.4-0.9,1.9c-0.6,0.5-1.2,0.7-2,0.7h-18.2l-1.4-4.8h17.5l-1,1V290c-0.1-0.9-0.4-1.8-1-2.5
			c-0.6-0.7-1.3-1.3-2.2-1.7s-1.8-0.6-2.8-0.6c-1,0-1.8,0.1-2.7,0.4c-0.8,0.3-1.5,0.7-2.1,1.3c-0.6,0.6-1.1,1.4-1.4,2.4
			s-0.5,2.3-0.5,3.9c0,1.7,0.4,3.2,1.1,4.4c0.7,1.2,1.6,2.1,2.8,2.7c1.1,0.6,2.3,0.9,3.6,0.9c1.2,0,2.1-0.1,2.8-0.3
			c0.7-0.2,1.3-0.4,1.7-0.7c0.4-0.3,0.8-0.5,1.2-0.7c0.6-0.3,1.1-0.4,1.6-0.4c0.7,0,1.3,0.2,1.7,0.7c0.5,0.5,0.7,1,0.7,1.7
			c0,0.9-0.4,1.6-1.3,2.3c-0.8,0.7-2,1.3-3.5,1.8C844.7,306.1,843.1,306.4,841.5,306.4z"/>
	</g>
	<path class="st0" d="M107.9,74.6h9.7h86v-9.8h-58c-20.4,0-37.1-16.7-37.1-37.1v-3.2h95.1h51.3l82.7,50.1v151
		c0,10.3-8.5,18.8-18.8,18.8H138.5h-30.6H91.6c-10.2,0-18.5-8.3-18.5-18.5v0c0-10.2,8.3-18.5,18.5-18.5c19.4,0,38.7,0,58.1,0v-6.6
		c-32,0-63.9,0-95.9,0c-10.2,0-18.5-8.3-18.5-18.5v0c0-10.2,8.3-18.5,18.5-18.5c28.3,0,56.7,0,85,0v-7.7c-34.4,0-68.8,0-103.6,0
		c-10.2,0-18.5-8.3-18.5-18.5v0c0-10.2,8.3-18.5,18.5-18.5c39.3,0,77.8,0,116.8,0l12-7.7c-36.7,0-73.4,0-110.2,0
		c-10.2,0-18.5-8.3-18.5-18.5v0c0-10.2,8.3-18.5,18.5-18.5L107.9,74.6z"/>
	<path class="st1" d="M205.6,91.8c-40.2,0-72.8,32.6-72.8,72.8c0,40.2,32.6,72.8,72.8,72.8c40.2,0,72.8-32.6,72.8-72.8
		C278.4,124.4,245.8,91.8,205.6,91.8z M257.4,131.1c5.8,8.9,9.3,19.4,9.8,30.7h-21.3c-0.5-9.2-2.8-19.9-8.1-30.7L257.4,131.1
		L257.4,131.1z M208.4,104.8c8.5,6.2,14.9,13.3,19.7,20.7h-19.7V104.8z M202.8,125.5h-19.7c4.8-7.3,11.2-14.4,19.7-20.7V125.5z
		 M202.8,131.1v30.7H171c0.5-9.1,3-20,8.7-30.7L202.8,131.1L202.8,131.1z M202.8,167.5v30.7h-23.1c-5.3-10.3-8.3-21.5-8.7-30.7
		L202.8,167.5L202.8,167.5z M202.8,203.8v19.7c-8.1-4.4-14.8-11.5-19.9-19.7H202.8z M208.4,203.8h19.9c-5.1,8.1-11.8,15.3-19.9,19.7
		V203.8z M208.4,198.2v-30.7h31.9c-0.4,9.2-3.4,20.4-8.7,30.7H208.4z M208.4,161.8v-30.7h23.1c5.7,10.7,8.2,21.6,8.7,30.7
		L208.4,161.8L208.4,161.8z M253.2,125.5h-18.4c-4.4-7.5-10.4-14.9-18.3-21.5C231.2,106.6,244.1,114.4,253.2,125.5z M194.8,104
		c-7.9,6.6-13.9,14-18.3,21.5H158C167.1,114.4,180.1,106.6,194.8,104z M153.9,131.1h19.5c-5.2,10.8-7.6,21.5-8.1,30.7H144
		C144.6,150.5,148.1,140,153.9,131.1z M153.9,198.2c-5.8-8.9-9.3-19.4-9.8-30.7h21.3c0.4,9.2,3.1,20.3,8.1,30.7H153.9z M158,203.8
		h18.3c0.2,0.3,0.4,0.7,0.6,1c4.7,8,10.9,15.3,18.4,20.6C180.4,222.9,167.3,215,158,203.8z M215.9,225.4
		c7.5-5.3,13.6-12.5,18.4-20.6c0.2-0.3,0.4-0.7,0.6-1h18.3C244,215,230.9,222.9,215.9,225.4z M257.4,198.2h-19.5
		c4.9-10.4,7.7-21.5,8.1-30.7h21.3C266.7,178.8,263.1,189.3,257.4,198.2z"/>
	<g>
		<path class="st0" d="M491.8,152c-2.7-1.5-5.4-2.9-8.2-4c6.4-3.1,11.2-7.2,14.6-12.5c3.7-5.7,5.6-12.4,5.6-20
			c0-14.2-3.8-24.9-11.4-32.2c-7.6-7.3-19.1-10.9-34.6-10.9h-61c-4.2,0-7.7,1.4-10.5,4.2c-2.8,2.8-4.2,6.3-4.2,10.5v139.9
			c0,4.2,1.4,7.7,4.2,10.5c2.8,2.8,6.3,4.2,10.5,4.2H457c6,0,12.2-0.7,18.6-2.1c6.5-1.4,12.5-3.9,18.2-7.6c5.6-3.7,10.2-9,13.7-15.7
			c3.5-6.8,5.2-15.5,5.2-26.1c0-9.7-2-17.6-5.9-23.8C502.8,160.3,497.8,155.5,491.8,152z M467.1,105.8c3.5,3.1,5.2,8.2,5.2,15.1
			c0,5.8-1.9,10.3-5.6,13.3c-3.7,3.1-7.9,4.6-12.6,4.6h-40.7v-37.8h39.9C459.1,101.1,463.6,102.6,467.1,105.8z M474.7,208.2
			c-4.4,4-10.3,5.9-17.7,5.9h-43.6v-46.7h41.9c3.4,0,7.1,0.4,11.1,1.2c4,0.8,7.5,2.8,10.4,6.1c2.9,3.2,4.4,8.5,4.4,15.7
			C481.2,198.3,479.1,204.2,474.7,208.2z"/>
		<path class="st0" d="M637.9,158.6c-4.8-3.8-10.9-6.9-18.3-9.3c-7.3-2.4-15.9-4.5-25.5-6.3c-7.4-1.5-13.8-3.1-19.1-5
			c-5.3-1.9-9.4-4.4-12.2-7.5c-2.8-3.1-4.2-7.1-4.2-12c0-4,1.2-7.6,3.6-10.7c2.4-3.1,6-5.5,10.8-7.3c4.8-1.8,10.6-2.7,17.6-2.7
			c4.2,0,8.7,0.7,13.6,2.1c4.8,1.4,9.4,3.1,13.8,5.1c4.4,2,7.8,4.2,10.4,6.4c1.9,1.5,4.1,2.2,6.5,2.2c3.7,0,6.9-1.5,9.7-4.4
			c2.7-2.9,4.1-6.1,4.1-9.7c0-4.8-2.3-9.1-7-12.8c-5.7-4.8-13-8.8-21.9-12c-9-3.1-18.7-4.7-29.2-4.7c-11.1,0-21.3,1.9-30.5,5.8
			c-9.2,3.9-16.5,9.5-21.9,16.9c-5.4,7.4-8.1,16.4-8.1,26.9c0,6.9,1.1,13.2,3.4,18.8c2.3,5.6,5.6,10.4,10,14.5
			c4.4,4.1,10,7.5,16.6,10.2c6.6,2.7,14.3,4.6,23,5.9c9.2,1.3,16.8,3.1,22.8,5.4c6,2.3,10.4,5.2,13.3,8.6c2.9,3.4,4.4,7.5,4.4,12.3
			c0,4-1.5,7.6-4.6,10.8c-3.1,3.1-7.1,5.7-12.1,7.5c-5,1.9-10.5,2.8-16.5,2.8c-8.9,0-16.3-1.3-22.4-3.9c-6.1-2.6-12.1-6.4-18.3-11.4
			c-2.4-1.9-5.2-2.9-8.2-2.9c-4,0-7.4,1.4-10,4.2c-2.7,2.8-4,6.1-4,9.8c0,2.3,0.6,4.5,1.7,6.8c1.1,2.3,2.7,4.3,4.8,6.1
			c8.2,7.1,16.9,12.1,25.9,14.9c9,2.8,19.2,4.2,30.5,4.2c11,0,21.2-2,30.6-6.1c9.4-4,17.1-9.8,22.9-17.4c5.8-7.6,8.7-16.6,8.7-27.1
			c0-8.2-1.2-15.2-3.6-20.9C646.4,167.1,642.7,162.4,637.9,158.6z"/>
		<path class="st0" d="M789.8,208.1c-3.3-0.5-6.7,0.1-10,1.7c-4,2.1-8.2,3.6-12.6,4.4c-4.4,0.8-8.7,1.2-13.1,1.2
			c-7.9,0-15.3-1.2-22-3.5c-6.8-2.3-12.7-5.9-17.7-10.8c-5-4.8-8.9-10.9-11.7-18.2c-2.8-7.3-4.2-15.8-4.2-25.7
			c0-8.4,1.2-16.1,3.8-23c2.5-6.9,6.2-13,11-18c4.8-5.1,10.7-9,17.6-11.7c6.9-2.7,14.6-4.1,23.4-4.1c4.7,0,9.2,0.5,13.4,1.5
			c4.3,1,8.4,2.3,12.2,4.1c3.4,1.6,6.7,2.3,10,1.9c3.3-0.3,6-1.9,8.1-4.8c3.1-3.7,4.2-7.8,3.5-12.3c-0.7-4.5-3.2-7.8-7.4-9.9
			c-6-3.1-12.3-5.4-19.1-7c-6.8-1.6-13.7-2.4-20.8-2.4c-12.6,0-24.2,2.1-34.9,6.4c-10.7,4.3-19.9,10.3-27.7,17.9
			c-7.8,7.7-13.9,16.7-18.2,27.2c-4.3,10.5-6.4,22-6.4,34.4c0,14.4,2.3,27,7,37.9c4.7,10.9,11.1,20,19.2,27.2
			c8.1,7.3,17.4,12.8,27.8,16.5c10.4,3.7,21.4,5.6,33,5.6c4.7,0,9.3-0.4,13.8-1.1c4.5-0.7,9-1.8,13.4-3.1c4.4-1.4,8.8-3.1,13-5.2
			c4-1.9,6.5-5,7.4-9.3c0.9-4.3-0.3-8.4-3.5-12.5C795.9,210.3,793.1,208.6,789.8,208.1z"/>
		<path class="st0" d="M848.2,76.7c-3-2.8-6.4-4.2-10.3-4.2c-4.5,0-8.2,1.4-11.1,4.2c-2.9,2.8-4.4,6.3-4.4,10.5v139.9
			c0,4.2,1.4,7.7,4.1,10.5c2.7,2.8,6.4,4.2,10.9,4.2c4,0,7.6-1.4,10.7-4.2c3.1-2.8,4.6-6.3,4.6-10.5V87.3
			C852.7,83.1,851.2,79.6,848.2,76.7z"/>
	</g>
</g>
</svg>
