<?xml version="1.0" encoding="utf-8"?>
<!-- Generator: Adobe Illustrator 23.0.1, SVG Export Plug-In . SVG Version: 6.00 Build 0)  -->
<svg version="1.1" id="Layer_1" xmlns="http://www.w3.org/2000/svg" xmlns:xlink="http://www.w3.org/1999/xlink" x="0px" y="0px"
	 viewBox="0 0 283 283" style="enable-background:new 0 0 283 283;" xml:space="preserve">
<style type="text/css">
	.st0{fill-rule:evenodd;clip-rule:evenodd;fill:#84898A;}
	.st1{fill-rule:evenodd;clip-rule:evenodd;fill:#FFFFFF;}
</style>
<g>
	<path class="st0" d="M141.25,0.54c78.01,0,141.25,63.24,141.25,141.25s-63.24,141.25-141.25,141.25S0,219.8,0,141.79
		S63.24,0.54,141.25,0.54L141.25,0.54z M141.25,30.37c-61.53,0-111.42,49.88-111.42,111.42c0,61.53,49.88,111.42,111.42,111.42
		c61.53,0,111.42-49.88,111.42-111.42C252.67,80.25,202.78,30.37,141.25,30.37z"/>
	<path class="st1" d="M35.12,192.23c-0.2-0.68-0.57-1.73-1.17-3.05c-1.09-2.42-2.29-3.9-3.69-4.48c-1.07-0.44-2.27-0.51-3.55,0.07
		c-2.2,0.99-2.62,3.17-2.32,4.73l-0.07,0.03c-1.25-1.29-2.94-1.69-4.39-1.04c-1.17,0.53-1.83,1.41-2.05,2.44
		c-0.34,1.24-0.11,2.62,0.75,4.54c0.6,1.32,1.34,2.6,1.91,3.35L35.12,192.23L35.12,192.23z M20.95,196.32
		c-0.21-0.28-0.5-0.75-0.9-1.64c-0.88-1.94-0.76-3.56,0.96-4.33c1.43-0.65,3.05,0.06,3.95,2.06l0.79,1.74L20.95,196.32L20.95,196.32
		z M27.18,193.51l-0.72-1.58c-0.94-2.09-0.87-4.22,1.13-5.12c2.16-0.97,3.71,0.52,4.61,2.51c0.31,0.68,0.52,1.22,0.64,1.65
		L27.18,193.51L27.18,193.51z M14.03,183.08l9.21-2.68c4.87-1.42,5.98-4.36,5.05-7.56c-0.98-3.39-3.67-5.35-8.47-3.95l-9.14,2.66
		l0.59,2.04l9.28-2.7c3.43-1,5.4,0.06,6.07,2.36c0.61,2.09-0.43,4.07-3.91,5.09l-9.28,2.7L14.03,183.08L14.03,183.08z M24.81,162.64
		c0.46-0.94,0.7-2.71,0.49-4.26c-0.52-3.81-2.95-5.33-5.42-4.99c-2.37,0.33-3.47,1.87-4.18,4.74c-0.56,2.34-1.16,3.43-2.65,3.63
		c-1.1,0.15-2.53-0.51-2.83-2.71c-0.2-1.46,0.11-2.6,0.35-3.14l-1.8-0.34c-0.29,0.75-0.5,2.02-0.28,3.65
		c0.43,3.14,2.58,4.96,5.1,4.62c2.25-0.31,3.41-2.13,3.96-4.88c0.51-2.29,1.28-3.27,2.79-3.48c1.63-0.22,2.9,0.87,3.19,3
		c0.2,1.44-0.07,2.84-0.52,3.85L24.81,162.64L24.81,162.64z M7.7,148.48l16.28-0.24l-0.03-2.13l-16.28,0.24L7.7,148.48L7.7,148.48z
		 M23.74,138.77l-6.94-0.53c-2.7-0.2-4.65-0.33-6.71-0.36l-0.02-0.07c1.82-0.66,3.76-1.6,5.65-2.6l8.63-4.53l0.16-2.12l-16.24-1.23
		l-0.15,1.98l6.82,0.52c2.51,0.19,4.48,0.29,6.67,0.26l0.02,0.07c-1.72,0.62-3.5,1.45-5.5,2.49l-8.61,4.56l-0.18,2.31l16.24,1.23
		L23.74,138.77L23.74,138.77z M17.48,113.43l-1.04,6.22l-5.08-0.85l1.11-6.6l-1.74-0.29l-1.46,8.7l16.06,2.69l1.52-9.05l-1.74-0.29
		l-1.17,6.96l-5.79-0.97l1.04-6.22L17.48,113.43L17.48,113.43z M26.99,110.48c0.83-0.63,1.85-2.1,2.36-3.58
		c1.25-3.63-0.23-6.08-2.58-6.9c-2.26-0.78-3.94,0.1-5.87,2.34c-1.56,1.84-2.59,2.53-4,2.04c-1.05-0.36-2.03-1.6-1.3-3.7
		c0.48-1.39,1.27-2.27,1.73-2.65l-1.46-1.12c-0.59,0.54-1.36,1.57-1.9,3.13c-1.03,2.99,0.06,5.59,2.46,6.42
		c2.15,0.74,4.01-0.35,5.74-2.57c1.49-1.81,2.62-2.34,4.06-1.84c1.55,0.54,2.19,2.09,1.49,4.12c-0.47,1.37-1.35,2.5-2.2,3.2
		L26.99,110.48L26.99,110.48z M31.45,97.55l-1.35-1.23c0.92-0.61,1.9-1.65,2.51-2.97c0.9-1.95,0.41-3.56-1.08-4.25
		c-1.38-0.64-2.56-0.22-4.22,1.44c-1.94,2.03-3.9,2.94-5.97,1.99c-2.3-1.06-3.14-3.76-1.82-6.63c0.69-1.49,1.55-2.45,2.2-2.93
		l1.34,1.25c-0.5,0.33-1.37,1.13-1.98,2.46c-0.93,2.02-0.07,3.34,0.94,3.81c1.36,0.63,2.46,0.04,4.18-1.64
		c2.14-2.05,3.9-2.75,6.07-1.76c2.26,1.04,3.49,3.63,1.89,7.12C33.5,95.64,32.34,97,31.45,97.55L31.45,97.55z M39.98,80.78
		c0.95-0.43,2.28-1.62,3.11-2.95c2.05-3.25,1.16-5.98-0.94-7.3c-2.02-1.27-3.86-0.8-6.25,0.95c-1.93,1.44-3.09,1.88-4.36,1.08
		c-0.94-0.59-1.61-2.02-0.43-3.9c0.79-1.25,1.75-1.92,2.29-2.18l-1.16-1.42c-0.7,0.39-1.68,1.22-2.56,2.61
		c-1.69,2.68-1.21,5.46,0.93,6.81c1.92,1.21,3.98,0.57,6.18-1.19c1.87-1.42,3.09-1.68,4.37-0.87c1.39,0.88,1.66,2.53,0.52,4.35
		C40.91,78,39.8,78.9,38.8,79.39L39.98,80.78L39.98,80.78z M53.17,64.67l-0.02,0.02c-2.78,3.31-7.26,3.46-11.04,0.29
		c-3.96-3.33-4.5-7.94-1.7-11.27c2.88-3.42,7.33-3.43,11.03-0.32C55.73,56.97,55.83,61.5,53.17,64.67L53.17,64.67z M51.91,63.51
		c-2.13,2.53-5.76,1.94-8.39-0.27c-2.7-2.27-4.08-5.7-1.83-8.38c2.25-2.68,5.93-1.8,8.41,0.28c2.83,2.38,3.97,5.79,1.82,8.35
		L51.91,63.51L51.91,63.51z M67.95,46.95c-0.36,0.87-1.17,1.93-2.15,2.79c-2.95,2.6-6.35,2.22-8.99-0.77
		c-2.81-3.19-2.52-6.7,0.34-9.22c1.02-0.89,2.06-1.43,2.89-1.65l-0.75-1.66c-0.59,0.17-1.86,0.7-3.36,2.03
		c-3.79,3.34-4.11,8.2-0.74,12.02c3.53,4.01,8.02,3.91,11.46,0.88c1.49-1.31,2.41-2.64,2.72-3.42L67.95,46.95L67.95,46.95z
		 M63.94,32.77l1.73-1.23l9.46,13.26l-1.73,1.23L63.94,32.77L63.94,32.77z M84.38,33.2l4.03,3.61l1.96-1.1L77.54,24.25l-2.21,1.24
		l3.16,16.9l1.9-1.07l-1.04-5.29L84.38,33.2L84.38,33.2z M78.92,34.39L78,29.5c-0.21-1.02-0.48-2.03-0.75-2.96l0.06-0.04
		c0.67,0.7,1.36,1.43,2.17,2.19l3.71,3.29L78.92,34.39L78.92,34.39z M94.09,34.1l-6.05-15.12l1.97-0.79l5.39,13.48l6.46-2.58
		l0.66,1.64L94.09,34.1L94.09,34.1z M121.46,23.49c-0.73,0.59-1.94,1.14-3.21,1.44c-3.84,0.89-6.64-1.07-7.54-4.95
		c-0.96-4.14,0.97-7.09,4.69-7.95c1.32-0.3,2.49-0.28,3.33-0.07l0.13-1.81c-0.6-0.13-1.97-0.26-3.92,0.19
		c-4.92,1.14-7.51,5.26-6.37,10.22c1.2,5.2,5.2,7.26,9.67,6.22c1.93-0.45,3.37-1.18,4.02-1.72L121.46,23.49L121.46,23.49z
		 M132.57,24.9c4.12-0.31,7.29-3.56,6.87-9.12c-0.37-4.82-3.49-8-7.95-7.66c-4.34,0.33-7.26,3.94-6.87,9.1
		c0.37,4.91,3.61,8.01,7.92,7.69L132.57,24.9L132.57,24.9z M132.51,23.18c-3.3,0.25-5.42-2.76-5.68-6.18
		c-0.27-3.52,1.22-6.9,4.71-7.17c3.49-0.26,5.43,2.98,5.68,6.21c0.28,3.69-1.37,6.89-4.69,7.14L132.51,23.18L132.51,23.18z
		 M158.56,25.26l2.07,0.16l0.22-16.31l-2.67-0.2l-3.49,7.63c-0.88,1.99-1.59,3.76-2.15,5.36l-0.05,0c-0.31-1.72-0.7-3.57-1.22-5.62
		l-2.17-8.06l-2.67-0.2l-2.36,16.15l2,0.15l0.96-6.93c0.33-2.42,0.66-5.14,0.86-7.15l0.05,0c0.31,1.96,0.78,4.11,1.38,6.45
		l2.06,7.93l1.59,0.12l3.46-7.66c0.99-2.15,1.8-4.18,2.52-6.01l0.05,0c-0.15,2-0.22,4.78-0.27,7.03L158.56,25.26L158.56,25.26z
		 M165.43,26.73l2.05,0.47l1.46-6.41c0.44,0.22,1,0.38,1.62,0.52c2,0.45,3.9,0.27,5.25-0.64c1.01-0.63,1.69-1.66,2.02-3.1
		c0.31-1.39,0.03-2.66-0.67-3.61c-0.75-1.06-2.13-1.87-4.15-2.33c-1.65-0.37-2.98-0.53-4.01-0.56L165.43,26.73L165.43,26.73z
		 M170.7,12.98c0.37-0.01,1.07,0.07,1.97,0.27c2.26,0.51,3.52,1.86,3.04,3.95c-0.49,2.16-2.27,3.01-4.74,2.45
		c-0.68-0.16-1.24-0.33-1.66-0.55L170.7,12.98L170.7,12.98z M179.42,30.53l8.48,3.25l0.63-1.65l-6.5-2.49l5.19-13.56l-1.99-0.76
		L179.42,30.53L179.42,30.53z M199.09,21.03l-7.55,14.43l1.88,0.99l7.55-14.42L199.09,21.03L199.09,21.03z M208.1,38.92l-4.89-3.08
		l-4.16,3.43l-1.84-1.16l13.36-10.83l2.15,1.35l-3.97,16.74l-1.9-1.2L208.1,38.92L208.1,38.92z M204.46,34.68l4.15,2.61l1.13-4.83
		c0.28-1.08,0.59-2.03,0.89-2.95l-0.06-0.04c-0.69,0.68-1.45,1.4-2.24,2.07L204.46,34.68L204.46,34.68z M213.61,48.99l4.54-5.27
		c1.77-2.05,3.03-3.55,4.27-5.18l0.07,0.03c-0.55,1.86-0.94,3.98-1.26,6.09l-1.48,9.63l1.61,1.39L232,43.34l-1.5-1.29l-4.46,5.18
		c-1.64,1.9-2.9,3.44-4.17,5.21l-0.07-0.03c0.52-1.75,0.91-3.68,1.26-5.9l1.44-9.63l-1.76-1.51l-10.63,12.33L213.61,48.99
		L213.61,48.99z M234.2,66.07l-1,1.43c-0.78-0.31-2.11-1.23-3.42-2.72c-3.03-3.44-3.13-7.94,0.88-11.46
		c3.83-3.37,8.68-3.04,12.02,0.75c1.33,1.5,1.86,2.77,2.03,3.36l-1.66,0.75c-0.22-0.84-0.75-1.88-1.65-2.89
		c-2.52-2.86-6.03-3.16-9.22-0.34c-2.99,2.63-3.38,6.03-0.78,8.99C232.28,64.9,233.34,65.71,234.2,66.07L234.2,66.07z M247.94,72.81
		l-3.61-5.17l4.22-2.95l3.83,5.48l1.44-1.01l-5.05-7.23l-13.34,9.33l5.26,7.52l1.45-1.01l-4.04-5.78l4.81-3.36l3.61,5.17
		L247.94,72.81L247.94,72.81z M259.73,79.42l-14.37,7.66l1,1.88l14.37-7.66L259.73,79.42L259.73,79.42z M249.52,95.57l-0.75-1.84
		l15.08-6.14l0.87,2.15l-5.67,7.92c-1.32,1.82-2.55,3.36-3.81,4.68l0.05,0.06c1.94-1,3.76-1.79,6.09-2.74l6.33-2.58l0.75,1.84
		l-15.08,6.14l-0.8-1.97l5.7-7.9c1.25-1.73,2.56-3.44,3.9-4.85l-0.05-0.06c-1.86,0.89-3.66,1.65-6.17,2.67L249.52,95.57
		L249.52,95.57z M270.25,105.73l-15.64,4.54l0.59,2.04l15.64-4.54L270.25,105.73L270.25,105.73z M256.97,120.57l0.35,2.1l14.3-2.4
		l0.82,4.91l1.76-0.3l-1.99-11.89l-1.76,0.3l0.82,4.88L256.97,120.57L256.97,120.57z M274.67,129.8l-16.24,1.23l0.16,2.12
		l16.24-1.23L274.67,129.8L274.67,129.8z M263.92,146.98l-5.15,1.66l-0.03,2.25l16.36-5.31l0.04-2.54l-16.2-5.78l-0.03,2.17
		l5.1,1.77L263.92,146.98L263.92,146.98z M265.65,141.67l4.69,1.67c0.99,0.33,2,0.61,2.93,0.84l0,0.07
		c-0.95,0.23-1.92,0.45-2.98,0.78l-4.71,1.55L265.65,141.67L265.65,141.67z M258.02,156.16l-0.29,2.11l14.36,1.97l-0.68,4.93
		l1.77,0.24l1.64-11.94l-1.77-0.24l-0.67,4.91L258.02,156.16L258.02,156.16z M272.18,170.19l-15.88-3.61l-0.47,2.07l15.88,3.61
		L272.18,170.19L272.18,170.19z M252.75,179.46l13.32,11.02l0.77-2.11l-6.62-5.33c-1.74-1.43-3.45-2.74-5.07-3.82l0.02-0.05
		c1.93,0.21,4.02,0.33,6.32,0.44l8.41,0.35l0.78-2.16l-17.13-0.53L252.75,179.46L252.75,179.46z M254.45,199.67l-1.58-0.73
		l2.63-5.73l-5.33-2.45l-2.95,6.41l-1.6-0.74l3.83-8.34l14.79,6.8l-3.68,8.01l-1.6-0.74l2.8-6.08l-4.68-2.15L254.45,199.67z"/>
	<path class="st1" d="M73.83,257.04l3.01,1.93l8.06-14.18l-4.07-2.61l-4.37,3.63c-1.45,1.23-3.07,2.74-4.46,4.09l-0.08-0.05
		c0.73-1.8,1.41-3.77,1.98-5.64l1.59-5.44l-4.13-2.65l-9.66,13.15l2.87,1.84l3.6-5.04c1.18-1.66,2.61-3.72,3.86-5.53l0.04,0.03
		c-0.8,2.01-1.61,4.25-2.2,6.16l-1.93,6.23l2.42,1.55l5.1-4.28c1.56-1.27,3.38-2.85,4.95-4.32l0.04,0.03
		c-1.28,1.99-2.5,4.03-3.49,5.71L73.83,257.04L73.83,257.04z M90.79,260.27l-6.93-3.15c-0.54,1.43,0.54,2.71,2.11,3.42
		c1.14,0.52,2.14,0.79,3.18,0.89l-0.59,2.47c-1.31-0.04-2.75-0.43-4.2-1.09c-3.65-1.66-4.78-4.72-3.25-8.08
		c1.24-2.73,4.3-4.97,8.04-3.27c3.48,1.58,3.57,4.88,2.36,7.54C91.24,259.58,90.94,260.05,90.79,260.27L90.79,260.27z M84.88,254.83
		c0.49-0.84,1.65-1.88,3.06-1.24c1.54,0.7,1.27,2.22,0.9,3.04L84.88,254.83L84.88,254.83z M90.89,265.69l3.39,1.15l2.21-6.52
		c0.1-0.3,0.23-0.61,0.44-0.85c0.39-0.48,1.15-0.99,2.04-0.69c1.12,0.38,1.3,1.51,0.83,2.91l-2.13,6.29l3.39,1.15l2.22-6.54
		c0.1-0.3,0.26-0.63,0.42-0.85c0.48-0.58,1.21-0.94,2.04-0.66c1.12,0.38,1.33,1.5,0.78,3.12l-2.06,6.09l3.39,1.15l2.23-6.59
		c1.14-3.36,0.03-5.42-2.12-6.15c-0.82-0.28-1.58-0.31-2.31-0.17c-0.66,0.13-1.29,0.43-1.93,0.88l-0.05-0.02
		c-0.09-1.33-0.95-2.46-2.42-2.96c-1.9-0.64-3.26,0.07-3.99,0.64l-0.07-0.02l0.37-1.56l-2.95-1c-0.3,1.02-0.64,2.21-1.12,3.6
		L90.89,265.69L90.89,265.69z M111.3,268.54l2.36-13.44l3.62,0.63l-1.17,6.66l0.05,0.01c0.87-0.88,2.19-1.31,3.81-1.02
		c2.78,0.49,4.4,3.15,3.75,6.72c-0.74,4.19-3.74,5.82-6.41,5.35c-1.36-0.24-2.6-0.97-3.17-2.49l-0.05-0.01l-0.43,1.59l-3.07-0.54
		C110.78,271.24,111.07,269.84,111.3,268.54L111.3,268.54z M115.48,265.98l-0.3,1.71c-0.04,0.24-0.06,0.46-0.04,0.65
		c0.07,0.99,0.77,1.9,1.82,2.08c1.55,0.27,2.71-0.75,3.07-2.85c0.32-1.81-0.24-3.38-1.93-3.67c-0.98-0.17-2.01,0.41-2.43,1.41
		C115.58,265.53,115.52,265.74,115.48,265.98L115.48,265.98z M135.77,270.58c0.07-0.26,0.18-0.81,0.23-1.44
		c0.22-2.92-1-5.99-4.8-6.28c-4.1-0.31-6.2,2.85-6.43,5.84c-0.28,3.69,1.83,6.17,5.83,6.48c1.59,0.12,3.08-0.01,4.32-0.42
		l-0.29-2.52c-1.01,0.26-2.04,0.35-3.29,0.26c-1.71-0.13-3.17-0.97-3.15-2.49L135.77,270.58L135.77,270.58z M128.35,267.49
		c0.17-0.96,0.9-2.33,2.45-2.21c1.69,0.13,1.96,1.65,1.89,2.54L128.35,267.49L128.35,267.49z M137.73,275.31l3.67,0.08l0.13-5.99
		c0.01-0.29,0.04-0.58,0.09-0.82c0.27-1.13,1.2-1.83,2.55-1.8c0.41,0.01,0.7,0.06,0.99,0.12l0.08-3.45
		c-0.26-0.05-0.43-0.08-0.77-0.09c-1.16-0.03-2.6,0.67-3.24,2.39l-0.1,0l-0.1-2.18l-3.14-0.07c0.05,1.02,0.05,2.15,0.01,3.89
		L137.73,275.31L137.73,275.31z M155.85,262.45c-3.79,0.49-5.96,3.24-5.47,7.04c0.49,3.79,3.42,5.7,6.85,5.25
		c3.14-0.41,5.93-2.77,5.37-7.06C162.13,264.14,159.42,261.98,155.85,262.45L155.85,262.45z M156.07,265.07
		c1.65-0.22,2.55,1.47,2.78,3.2c0.28,2.13-0.43,3.66-1.86,3.85c-1.56,0.2-2.59-1.2-2.85-3.21
		C153.9,267.18,154.34,265.3,156.07,265.07L156.07,265.07z M169.64,272.51l-3.62,0.64l-1.57-8.97l-1.55,0.27l-0.47-2.67l1.55-0.27
		l-0.08-0.45c-0.25-1.4-0.09-3.03,0.77-4.16c0.78-1.02,1.96-1.55,3.03-1.73c0.79-0.14,1.42-0.13,1.95-0.1l0.35,2.81
		c-0.33-0.04-0.72-0.05-1.2,0.04c-1.19,0.21-1.53,1.22-1.33,2.37l0.1,0.59l2.33-0.41l0.47,2.67l-2.31,0.41L169.64,272.51
		L169.64,272.51z M178.73,270.19c0.82-0.14,2.14-0.46,3.86-1.03c3.07-1.02,4.78-2.15,5.61-3.42c0.7-1.1,0.98-2.41,0.51-3.83
		c-0.66-1.97-2.41-2.89-4.33-2.76l-0.02-0.05c1.52-1.24,1.91-2.77,1.46-4.12c-0.47-1.42-1.58-2.22-2.85-2.44
		c-1.37-0.28-2.74-0.06-4.87,0.65c-1.77,0.59-3.55,1.36-4.41,1.82L178.73,270.19L178.73,270.19z M177.91,256.18
		c0.26-0.14,0.68-0.33,1.46-0.59c1.58-0.53,2.68-0.2,3.07,0.97c0.38,1.15-0.33,2.22-2.19,2.84l-1.15,0.38L177.91,256.18
		L177.91,256.18z M179.94,262.28l1.19-0.4c1.74-0.58,3.35-0.42,3.86,1.11c0.54,1.63-0.65,2.71-2.23,3.24
		c-0.6,0.2-1.01,0.34-1.37,0.4L179.94,262.28L179.94,262.28z M192.06,264.77l-0.56-3.06c1.09,0.06,2.71-0.11,4.14-0.76
		c1.54-0.7,2.07-1.7,1.63-2.67c-0.42-0.92-1.36-1.13-3.42-0.95c-2.86,0.23-5.11-0.39-6.08-2.55c-1.14-2.53,0.13-5.41,3.6-6.98
		c1.7-0.77,3.06-0.98,4.12-0.96l0.46,3.02c-0.7-0.03-1.97,0.04-3.4,0.69c-1.45,0.66-1.85,1.66-1.51,2.41c0.43,0.95,1.43,1,3.7,0.85
		c3.06-0.22,4.89,0.6,5.83,2.69c1.12,2.49,0.19,5.46-3.89,7.3C194.99,264.56,193.11,264.86,192.06,264.77L192.06,264.77z
		 M213.39,250.8c-0.49,0.64-1.44,1.43-2.42,2c-2.83,1.62-5.53,0.79-7.15-2.04c-1.8-3.15-0.7-5.8,1.82-7.24
		c1.15-0.66,2.2-0.92,2.98-1.01l-0.77-2.9c-0.75,0.01-2.18,0.41-3.84,1.36c-4.28,2.45-6.2,7.07-3.44,11.9
		c2.3,4.03,6.57,5.65,11.46,2.86c1.7-0.97,2.85-2.07,3.26-2.67L213.39,250.8L213.39,250.8z M208.38,238.24l3-2.12l9.41,13.29
		l-3,2.12L208.38,238.24z"/>
	<path class="st0" d="M78.83,216.06l2.52,8.34h1.38l1.34-3.96c0.29-0.9,0.55-1.77,0.76-2.77h0.03c0.21,0.98,0.45,1.81,0.74,2.76
		l1.28,3.98h1.38l2.69-8.34h-1.5l-1.19,4.19c-0.28,0.98-0.5,1.86-0.64,2.71h-0.05c-0.19-0.84-0.43-1.74-0.74-2.72l-1.29-4.17h-1.28
		l-1.36,4.24c-0.28,0.91-0.55,1.81-0.74,2.65h-0.05c-0.15-0.86-0.38-1.74-0.6-2.67l-1.12-4.22H78.83L78.83,216.06z M91.72,216.06
		l2.52,8.34h1.38l1.34-3.96c0.29-0.9,0.55-1.77,0.76-2.77h0.03c0.21,0.98,0.45,1.81,0.74,2.76l1.28,3.98h1.38l2.69-8.34h-1.5
		l-1.19,4.19c-0.28,0.98-0.5,1.86-0.64,2.71h-0.05c-0.19-0.84-0.43-1.74-0.74-2.72l-1.29-4.17h-1.28l-1.36,4.24
		c-0.28,0.91-0.55,1.81-0.74,2.65H95c-0.15-0.86-0.38-1.74-0.6-2.67l-1.12-4.22H91.72L91.72,216.06z M104.61,216.06l2.52,8.34h1.38
		l1.34-3.96c0.29-0.9,0.55-1.77,0.76-2.77h0.03c0.21,0.98,0.45,1.81,0.74,2.76l1.28,3.98h1.38l2.69-8.34h-1.5l-1.19,4.19
		c-0.28,0.98-0.5,1.86-0.64,2.71h-0.05c-0.19-0.84-0.43-1.74-0.74-2.72l-1.29-4.17h-1.28l-1.36,4.24c-0.28,0.91-0.55,1.81-0.74,2.65
		h-0.05c-0.15-0.86-0.38-1.74-0.6-2.67l-1.12-4.22H104.61L104.61,216.06z M118.23,224.59c0.62,0,1.03-0.47,1.03-1.09
		c0-0.64-0.41-1.09-1.02-1.09c-0.6,0-1.03,0.47-1.03,1.09c0,0.62,0.41,1.09,1,1.09H118.23L118.23,224.59z M121.14,222.25
		c0,0.74-0.02,1.59-0.07,2.15h1.31l0.09-1.38h0.03c0.64,1.1,1.59,1.57,2.79,1.57c1.86,0,3.76-1.48,3.76-4.48
		c0-2.52-1.45-4.24-3.52-4.24c-1.34,0-2.31,0.59-2.84,1.52h-0.03v-5.22h-1.52V222.25L121.14,222.25z M122.66,219.56
		c0-0.24,0.03-0.45,0.09-0.64c0.29-1.14,1.26-1.86,2.29-1.86c1.62,0,2.48,1.43,2.48,3.12c0,1.91-0.93,3.21-2.53,3.21
		c-1.09,0-1.98-0.72-2.27-1.78c-0.03-0.17-0.05-0.36-0.05-0.55V219.56L122.66,219.56z M130.38,223.99c0.59,0.34,1.43,0.59,2.34,0.59
		c1.95,0,3.1-1.03,3.1-2.52c0-1.24-0.76-1.96-2.19-2.5c-1.09-0.43-1.57-0.74-1.57-1.43c0-0.62,0.48-1.14,1.38-1.14
		c0.78,0,1.38,0.29,1.71,0.48l0.36-1.09c-0.45-0.29-1.19-0.52-2.03-0.52c-1.77,0-2.88,1.1-2.88,2.45c0,0.98,0.71,1.81,2.22,2.36
		c1.1,0.41,1.53,0.79,1.53,1.52c0,0.71-0.52,1.24-1.6,1.24c-0.76,0-1.55-0.31-2.02-0.59L130.38,223.99L130.38,223.99z
		 M143.46,222.96c-0.43,0.19-1,0.4-1.86,0.4c-1.65,0-2.9-1.19-2.9-3.12c0-1.72,1.03-3.15,2.95-3.15c0.83,0,1.4,0.21,1.76,0.4
		l0.34-1.15c-0.41-0.22-1.21-0.45-2.1-0.45c-2.72,0-4.48,1.88-4.48,4.45c0,2.55,1.64,4.26,4.15,4.26c1.12,0,2-0.29,2.4-0.48
		L143.46,222.96L143.46,222.96z M147.01,224.41v-8.34h-1.52v8.34H147.01L147.01,224.41z M146.23,214.67c0.59,0,0.95-0.43,0.95-0.93
		c0-0.53-0.38-0.95-0.93-0.95c-0.57,0-0.95,0.41-0.95,0.95c0,0.5,0.36,0.93,0.91,0.93H146.23L146.23,214.67z M148.78,219.2v1.1h4.26
		v-1.1H148.78L148.78,219.2z M156.33,224.41v-8.34h-1.52v8.34H156.33L156.33,224.41z M155.55,214.67c0.59,0,0.95-0.43,0.95-0.93
		c0-0.53-0.38-0.95-0.93-0.95c-0.57,0-0.95,0.41-0.95,0.95c0,0.5,0.36,0.93,0.91,0.93H155.55L155.55,214.67z M158.85,224.41h1.52
		v-5.03c0-0.24,0.03-0.52,0.1-0.71c0.28-0.84,1.05-1.55,2.03-1.55c1.43,0,1.93,1.14,1.93,2.48v4.81h1.52v-4.98
		c0-2.86-1.79-3.55-2.95-3.55c-1.38,0-2.34,0.78-2.76,1.55h-0.03l-0.09-1.36h-1.34c0.05,0.69,0.07,1.38,0.07,2.26V224.41
		L158.85,224.41z M168.68,214.53v1.53h-1.29v1.15h1.29v4.53c0,0.98,0.17,1.72,0.59,2.19c0.36,0.4,0.93,0.64,1.64,0.64
		c0.59,0,1.05-0.1,1.34-0.21l-0.07-1.15c-0.22,0.07-0.47,0.1-0.88,0.1c-0.84,0-1.14-0.59-1.14-1.62v-4.48h2.17v-1.15h-2.17v-2
		L168.68,214.53L168.68,214.53z M174.04,224.41h1.52v-12.24h-1.52V224.41L174.04,224.41z M178.59,224.59c0.62,0,1.03-0.47,1.03-1.09
		c0-0.64-0.41-1.09-1.02-1.09s-1.03,0.47-1.03,1.09c0,0.62,0.41,1.09,1,1.09H178.59L178.59,224.59z M184.92,224.59
		c1.98,0,4.14-1.34,4.14-4.45c0-2.53-1.62-4.27-4.02-4.27c-2.29,0-4.14,1.64-4.14,4.43c0,2.64,1.76,4.29,4,4.29H184.92
		L184.92,224.59z M184.95,223.46c-1.47,0-2.5-1.38-2.5-3.21c0-1.59,0.78-3.24,2.55-3.24c1.79,0,2.5,1.78,2.5,3.19
		c0,1.9-1.09,3.26-2.53,3.26H184.95L184.95,223.46z M190.97,224.41h1.52v-4.46c0-0.24,0.02-0.48,0.05-0.71
		c0.21-1.12,0.97-1.93,2.03-1.93c0.21,0,0.36,0.02,0.52,0.03v-1.43c-0.14-0.02-0.26-0.03-0.41-0.03c-1.02,0-1.95,0.71-2.33,1.83
		h-0.05l-0.07-1.64h-1.33c0.05,0.78,0.07,1.62,0.07,2.6V224.41L190.97,224.41z M203.6,218.34c0-1,0.02-1.69,0.07-2.27h-1.34
		l-0.05,1.26h-0.03c-0.38-0.71-1.15-1.45-2.6-1.45c-1.93,0-3.77,1.59-3.77,4.41c0,2.33,1.48,4.08,3.55,4.08
		c1.29,0,2.21-0.62,2.65-1.4h0.03v0.91c0,2.12-1.14,2.93-2.69,2.93c-1.03,0-1.9-0.31-2.45-0.67l-0.38,1.17
		c0.67,0.45,1.77,0.69,2.77,0.69c1.05,0,2.22-0.26,3.05-1c0.79-0.74,1.19-1.9,1.19-3.83V218.34L203.6,218.34z M202.08,220.84
		c0,0.28-0.03,0.57-0.12,0.81c-0.31,0.98-1.15,1.57-2.1,1.57c-1.62,0-2.46-1.38-2.46-3c0-1.95,1.03-3.17,2.48-3.17
		c1.12,0,1.84,0.72,2.12,1.62c0.07,0.21,0.09,0.43,0.09,0.67V220.84z"/>
	<path class="st0" d="M100.14,190.25c1.48,0.23,3.91,0.46,7.16,0.46c5.82,0,9.38-1.01,11.5-2.79c1.82-1.56,3.04-3.75,3.04-6.59
		c0-3.93-2.47-6.63-5.82-7.55v-0.09c3.3-1.33,4.82-3.84,4.82-6.54c0-2.84-1.43-4.94-3.47-6.08c-2.17-1.33-4.64-1.74-8.68-1.74
		c-3.34,0-6.81,0.32-8.55,0.64V190.25L100.14,190.25z M106.69,164.59c0.52-0.09,1.35-0.18,2.82-0.18c2.99,0,4.69,1.24,4.69,3.57
		c0,2.29-1.82,3.8-5.34,3.8h-2.17V164.59L106.69,164.59z M106.69,176.76h2.26c3.3,0,5.95,1.23,5.95,4.3c0,3.25-2.65,4.48-5.64,4.48
		c-1.13,0-1.91,0-2.56-0.09V176.76L106.69,176.76z M125.26,188.93c1.65,0.96,4.95,1.92,8.29,1.92c8.03,0,11.76-4.39,11.76-9.56
		c0-4.35-2.39-7.18-7.55-9.19c-3.82-1.51-5.43-2.38-5.43-4.35c0-1.56,1.39-2.97,4.25-2.97c2.82,0,4.95,0.87,6.08,1.46l1.48-5.58
		c-1.74-0.87-4.12-1.56-7.47-1.56c-6.86,0-11.07,3.98-11.07,9.24c0,4.48,3.21,7.32,8.07,9.15c3.52,1.28,4.9,2.38,4.9,4.3
		c0,2.01-1.61,3.34-4.64,3.34c-2.82,0-5.6-0.96-7.34-1.92L125.26,188.93L125.26,188.93z M170.35,184.08
		c-1.35,0.59-3.52,1.01-5.56,1.01c-5.86,0-9.33-3.89-9.33-10.06c0-6.86,4.08-10.2,9.29-10.2c2.39,0,4.25,0.55,5.56,1.14l1.39-5.49
		c-1.17-0.69-3.78-1.37-7.21-1.37c-8.85,0-15.97,5.81-15.97,16.33c0,8.78,5.21,15.46,15.32,15.46c3.52,0,6.29-0.73,7.47-1.33
		L170.35,184.08L170.35,184.08z M175.77,159.56v30.83h6.6v-30.83H175.77z"/>
	<g>
		<path class="st0" d="M108.67,75.01h3.92h34.77v-3.95h-23.45c-8.26,0-15.02-6.76-15.02-15.02v-1.3h38.47h20.75l33.45,20.27v61.07
			c0,4.19-3.42,7.61-7.61,7.61h-72.9h-12.39h-6.59c-4.11,0-7.47-3.36-7.47-7.47v0c0-4.11,3.36-7.47,7.47-7.47
			c7.83,0,15.66,0,23.49,0v-2.69c-12.93,0-25.86,0-38.78,0c-4.11,0-7.47-3.36-7.47-7.47v0c0-4.11,3.36-7.47,7.47-7.47
			c11.46,0,22.91,0,34.37,0V108c-13.93,0-27.81,0-41.9,0c-4.11,0-7.47-3.36-7.47-7.47v0c0-4.11,3.36-7.47,7.47-7.47
			c15.9,0,31.46,0,47.23,0l4.85-3.1c-14.85,0-29.7,0-44.55,0c-4.11,0-7.47-3.36-7.47-7.47v0c0-4.11,3.36-7.47,7.47-7.47H108.67z"/>
		<path class="st1" d="M148.2,81.99c16.26,0,29.44,13.18,29.44,29.44c0,16.26-13.18,29.44-29.44,29.44
			c-16.26,0-29.44-13.18-29.44-29.44C118.76,95.18,131.94,81.99,148.2,81.99L148.2,81.99z M167.45,127.27h-38.5
			c4.57,5.55,11.5,9.09,19.25,9.09C155.95,136.36,162.88,132.82,167.45,127.27L167.45,127.27z M127.28,124.99h41.84
			c2.34-3.6,3.77-7.85,3.98-12.41h-49.8C123.51,117.14,124.94,121.39,127.28,124.99L127.28,124.99z M123.3,110.3h49.8
			c-0.21-4.57-1.64-8.81-3.98-12.41h-41.84C124.94,101.48,123.51,105.73,123.3,110.3L123.3,110.3z M128.95,95.6h38.5
			c-4.57-5.55-11.5-9.09-19.25-9.09C140.45,86.51,133.52,90.05,128.95,95.6z"/>
		<path class="st1" d="M147.06,87.24c-3.96,2.89-6.82,6.26-8.81,9.71c-2.91,5.03-4.02,10.23-4.1,14.36
			c-0.08,4.36,1.44,10.19,4.41,15.22c2.12,3.6,4.98,6.77,8.5,8.69V87.24L147.06,87.24z M149.34,84.47
			c4.95,3.29,8.42,7.26,10.78,11.34c3.13,5.4,4.31,11,4.4,15.47c0.09,4.74-1.54,11.02-4.72,16.42c-2.52,4.28-6.03,8.02-10.46,10.07
			v1.39h-2.28v-1.39c-4.42-2.05-7.94-5.8-10.46-10.07c-3.19-5.4-4.82-11.68-4.72-16.42c0.09-4.47,1.27-10.07,4.4-15.47
			c2.36-4.08,5.84-8.05,10.78-11.34v-1.51h2.28V84.47L149.34,84.47z M149.34,135.23c3.52-1.91,6.38-5.09,8.5-8.69
			c2.97-5.04,4.5-10.86,4.41-15.22c-0.08-4.14-1.18-9.33-4.1-14.36c-2-3.45-4.85-6.82-8.81-9.71V135.23z"/>
	</g>
	<path class="st1" d="M41.68,211.28c3.43,0,6.21,2.78,6.21,6.21c0,3.43-2.78,6.21-6.21,6.21c-3.43,0-6.21-2.78-6.21-6.21
		C35.47,214.06,38.25,211.28,41.68,211.28L41.68,211.28z M240.82,212.01c3.43,0,6.21,2.78,6.21,6.21c0,3.43-2.78,6.21-6.21,6.21
		c-3.43,0-6.21-2.78-6.21-6.21C234.62,214.78,237.39,212.01,240.82,212.01z"/>
</g>
</svg>
