<?xml version="1.0" encoding="utf-8"?>
<!-- Generator: Adobe Illustrator 25.0.0, SVG Export Plug-In . SVG Version: 6.00 Build 0)  -->
<svg version="1.1" id="图层_1" xmlns:serif="http://www.serif.com/"
	 xmlns="http://www.w3.org/2000/svg" xmlns:xlink="http://www.w3.org/1999/xlink" x="0px" y="0px" viewBox="0 0 595.3 265"
	 style="enable-background:new 0 0 595.3 265;" xml:space="preserve">
<style type="text/css">
	.st0{fill:none;}
	.st1{fill-rule:evenodd;clip-rule:evenodd;fill:#E4007F;}
</style>
<g id="アートボード1" transform="matrix(0.784717,0,0,0.757322,-214.648,-379.843)">
	<rect x="273.5" y="599.6" class="st0" width="757.4" height="144.6"/>
	<g transform="matrix(1.27434,0,0,1.32044,-99.2934,-175.674)">
		<path class="st1" d="M570,664.1l-77.2-75.4l-77.3,75.4l0,32l77.2-75.4l77.2,75.4L570,664.1z M729.4,638.5
			c-13.2-5.1-23.1-6.1-31.6-7.6c-7-1.2-22.6-3.1-22.6-10.3c0-7.9,12-9,24.7-9c10.3,0,23.1,0.9,24.8,15.3l22.5,0
			c-1-15-7.8-37-47.2-37c-43.6-0.5-46.5,21.5-47.3,28c-1.1,12.4,5.5,23.5,17.7,28.2c13.2,5.1,24.4,6.4,31.7,7.6
			c7.6,1.3,22.5,3.2,22.5,10.3c0,7.4-10.8,9-24.7,9c-10.4,0-23.1-0.9-24.8-15.3l-22.5,0c1,15,7.9,37,47.2,37
			c42.5,0.4,46.2-19.7,47.4-28C748.1,654.3,741.6,643.2,729.4,638.5z M826.2,589.9c-40.5,0-58.1,24.2-58.1,51.8
			c0,27.6,17.6,52.9,58.1,52.9c40.5,0,58.2-25.3,58.2-52.9C884.4,614.1,866.7,589.9,826.2,589.9z M621.5,693.6l-22.7,0l0-102.8
			l22.7,0L621.5,693.6z M297.6,590.7l0,102.8l41.4,0c40.5,0,58.2-23.3,58.2-51.9c0-28.6-17.7-50.9-58.2-50.9L297.6,590.7z
			 M826.1,672.9c-27,0-35-14.9-35-31.2c0-16.3,8.1-30.1,35-30.1c26.9,0,35.3,14.3,35.3,30.1C861.4,657.5,853.1,672.9,826.1,672.9z
			 M320.3,672.2l0-60.1c0,0,11.6,0,18.7,0c26.9,0,35.3,12.6,35.3,29.5c0,16.9-8.3,30.6-35.3,30.6
			C334.3,672.2,320.3,672.2,320.3,672.2z"/>
	</g>
</g>
</svg>
