<?xml version="1.0" encoding="utf-8"?>
<!-- Generator: Adobe Illustrator 25.0.0, SVG Export Plug-In . SVG Version: 6.00 Build 0)  -->
<svg version="1.1" id="图层_1" xmlns="http://www.w3.org/2000/svg" xmlns:xlink="http://www.w3.org/1999/xlink" x="0px" y="0px"
	 viewBox="0 0 2500 497.8" style="enable-background:new 0 0 2500 497.8;" xml:space="preserve">
<style type="text/css">
	.st0{fill-rule:evenodd;clip-rule:evenodd;fill:#6FBE4A;}
	.st1{fill-rule:evenodd;clip-rule:evenodd;fill:#00954C;}
	.st2{fill:#00954C;}
</style>
<path d="M114.7,257.7v67.4c-0.5,16.7-0.8,17.1-1.1,17.6c-0.6,0.6-0.9,1.3-1.8,2.2c-0.7,0.6-1.8,2-2.9,2.2c-0.9,0.6-1.7,1.2-2.2,1.2
	c0,0.3-0.4,0.3-0.9,0.3c0,0-0.3,0.2-0.6,0.2c-0.3,0.4-0.3,0.4,0,0.6h51.2v-0.6c-0.3-0.3-0.3-0.3-0.9-0.3c-0.6-0.3-0.9-0.6-1.9-1.2
	c-0.9-0.6-2.1-2-2.9-2.6c-1.2-1.2-1.4-2.2-1.8-2.8c-0.3-0.6-0.5-0.9-0.5-26.7V185.7l-44.5,44.2c2.9-1.3,7-0.5,9,1.9
	C114.7,234,114.7,238.7,114.7,257.7"/>
<path class="st0" d="M0,225c0-4.4,0.2-8.8,0.7-13.1L114.4,98.2c10.4-1.1,20.9-0.9,31.3,0.6L1.3,243.2C0.4,237.2,0,231.1,0,225
	 M44.2,321.5c-5.7-4.9-11-10.3-15.7-16.2l69.6-69.6c2.9-1.2,8.1-0.6,10.1,1.8c1.4,2,1.4,3.6,1.6,18.4L44.2,321.5z M207.8,125.9
	c5.8,4.8,11.3,10,16.2,15.7l-70.2,70.2V180L207.8,125.9z M183.1,110.2c7,3.4,13.7,7.4,19.9,12L24.7,300.5c-4.6-6.3-8.6-12.9-12-19.9
	L183.1,110.2z M152.9,100c8.5,1.7,16.6,4.3,24.4,7.5L10.1,274.8c-3.3-7.9-5.9-16-7.6-24.4L152.9,100z M2.1,202
	c9.6-52.1,50.3-92.9,102.4-102.4L2.1,202z"/>
<g>
	<path class="st1" d="M227.1,303.3c-4.7,5.9-9.9,11.4-15.6,16.4l-57.9-58v-32L227.1,303.3z M243.1,279.5c-3.3,7-6.6,13-11.1,19.2
		l-78.3-78.3l15.1-15.2L243.1,279.5z M253.1,249.1c-1.6,8.5-4.1,16.7-7.4,24.5L173.1,201l15.9-15.9L253.1,249.1z M213.5,160.6
		l14.4-14.4c12.3,15.6,21.3,33.8,25.2,54.1L213.5,160.6z M209.3,164.9l45.4,45.5c1.2,10.5,1,21.1-0.4,31.6l-61-61L209.3,164.9z"/>
	<path class="st2" d="M1820.6,191.3l-32.8,158.3h-69.1l32.6-158.1h-63.7l11.4-54.7l196.2-0.1l-11.2,54.5L1820.6,191.3z
		 M2357.9,298.5h91.3l-10.5,50.8l-160.8,0.1l44-212.9H2480l-10.5,50.8l-88.5,0l-5.9,28.5h81.9l-10.7,50.7l-81.8,0L2357.9,298.5z
		 M2165.9,298.6h91.3l-10.5,50.8l-160.8,0.1l43.9-212.8l158.1-0.1l-10.5,50.8l-88.4,0l-5.9,28.5h81.8l-10.7,50.7l-81.8,0
		L2165.9,298.6z M1966.1,221.6h26.5c12.7,0,21.7-8.4,23.8-18.5c0.3-1.2,0.4-2.5,0.4-3.7c0.1-2.9-0.9-5.7-2.7-8
		c-1.7-2-3.2-3.6-12.5-3.6h-28.5L1966.1,221.6z M1955.6,272.5l-15.9,77l-69.2,0l44.2-212.8H2016c34.4,0,44.3,4.5,53,11
		c10.8,8,16.8,20.8,16.9,35.8c-0.1,4.2-0.5,8.4-1.4,12.5c-4.4,21.2-17.4,38.4-39.4,48.2c11.6,7.2,17.6,18.9,17.6,33.6
		c0,1.4,0,2.7-0.1,4.1l-2.4,33.3c-0.1,1.8-0.2,3.5-0.2,5.5c0,4.7,0.5,10.6,2.3,21l1.3,7.8h-65.8l-5,0l-1.2-5
		c-0.9-3.9-1.8-7.4-1.8-13.8c0-3.1,0.2-6.8,0.6-11.5l2.7-33.3c0.1-0.9,0.2-1.7,0.2-2.4c0-7.3-2.7-10.9-13-10.9L1955.6,272.5z
		 M831.9,295.3h85.8l-11.2,54.3l-155.1,0l44.2-212.8l69,0L831.9,295.3z M1006.7,295.3l85.8,0l-11.2,54.3l-155,0.1l44.1-212.8h69.1
		L1006.7,295.3z M630.9,302.1c16,0,39.1-12.1,48.9-59.7c1.9-9.3,2.8-17.2,2.7-23.9c0-26.7-12.9-33.6-25.7-33.6
		c-16.9,0-40.2,12.2-50.2,60.3c-1.8,8.1-2.7,16.3-2.9,24.5C603.8,295.5,616,302.1,630.9,302.1 M622,355.2h-1.2
		c-12.5,0-17.1-1.1-20.2-1.9l-1.3-0.3c-21.7-3.7-36.9-12.8-48.2-27.1c-10-12.7-16.3-29.9-16.3-52.7c0-9.7,1.1-20.4,3.5-32.1
		c14.1-67.6,63.5-109,125.8-109c34.3,0,54.4,9.9,68.8,26.4c11.6,13.3,18.9,31.1,18.8,55.6c0.1,9.9-1.2,20.9-3.7,33
		c-6.4,31.1-20.2,54.8-39.7,73.6C686.8,341.6,661.5,355,622,355.2 M376.1,298.7l14.8-0.1c18.4-0.2,31.3-6.3,41.5-17.1
		c8.7-9.1,16.6-23.4,19.6-38c1.4-6.4,2-12.2,2-17.5c0-25.2-14.4-37.8-38-37.8H399L376.1,298.7z M296.3,349.7l44.1-212.8h100.9
		c30.8,0,56.7,13.4,69.1,31c8,11.2,13.1,27.6,13.1,47.8c0,8.6-0.9,18-3,28c-7.6,37-24.7,63-45,79.7c-24.1,20-50.4,26.3-76.8,26.3
		H296.3z M1457.3,221.5h26.6c12.8,0.4,23.5-9.5,24.2-22.2c0.1-2.9-0.9-5.7-2.7-8c-1.7-2-3.2-3.7-12.4-3.6h-28.6L1457.3,221.5z
		 M1446.8,272.4l-15.9,77h-69l43.9-212.8l101.5,0c34.4,0,44.2,4.5,53,10.9c10.7,8,16.7,20.8,16.7,35.8c0,4-0.5,8.2-1.3,12.5
		c-4.3,21.2-17.4,38.5-39.4,48.2c11.6,7.2,17.6,18.9,17.6,33.6c0,1.3,0,2.7-0.1,4.1l-2.3,33.3c-0.1,1.8-0.2,3.6-0.2,5.4
		c0,4.6,0.5,10.6,2.3,21l1.4,7.8H1484l-1.2-5c-0.9-3.9-1.8-7.3-1.8-13.9c0-3,0.2-6.7,0.6-11.4l2.7-33.3c0.1-0.8,0.1-1.6,0.1-2.4
		c0-7.3-2.7-10.9-12.9-10.9L1446.8,272.4z M1221.7,258.1l33.5,0c-2.4-17.1-4.4-34.2-6-51.3C1240.5,224.2,1231.3,241.2,1221.7,258.1
		 M1192.4,308.9l-23.3,40.6l-69,0l129.6-212.8h72.3l40.1,212.8l-71.8,0l-6.7-40.6L1192.4,308.9z M2471.6,323.3h3.8
		c4.3,0,6.3-1.2,6.3-4.1c0-3.1-2.1-4.3-6.5-4.4h-3.6L2471.6,323.3z M2476.3,311.2c7.6,0,11.4,2.6,11.4,7.4c0,3.9-2.1,6.6-6,7.5
		l6,12.3h-6.5l-5.3-11.4h-4.3v11.3h-5.8v-27.1L2476.3,311.2z M2461.3,310.4c-8.2,7.9-8.3,20.9-0.4,29.1c0,0,0.1,0.1,0.1,0.1
		c4,3.9,9.1,6.2,14.4,6.2c5.6,0.1,11-2.1,14.9-6c3.9-3.7,6-8.9,6-14.2c0.2-11.4-8.9-20.8-20.3-21
		C2470.5,304.5,2465.3,306.6,2461.3,310.4 M2493,308.2c4.5,4.6,6.9,10.4,6.9,16.9c0.1,6.5-2.5,12.7-7.1,17.2c-9.4,9.4-24.6,9.4-34,0
		c-0.1-0.1-0.2-0.2-0.3-0.3c-9.4-9.4-9.4-24.6,0-33.9c0.1-0.1,0.2-0.2,0.3-0.3c4.4-4.5,10.5-7,16.9-6.9
		C2482.2,300.9,2488.5,303.6,2493,308.2"/>
</g>
</svg>
