<?xml version="1.0" encoding="utf-8"?>
<!-- Generator: Adobe Illustrator 25.0.0, SVG Export Plug-In . SVG Version: 6.00 Build 0)  -->
<svg version="1.1" id="图层_1" xmlns="http://www.w3.org/2000/svg" xmlns:xlink="http://www.w3.org/1999/xlink" x="0px" y="0px"
	 viewBox="0 0 1540 484" style="enable-background:new 0 0 1540 484;" xml:space="preserve">
<style type="text/css">
	.st0{fill:#E60012;}
</style>
<g>
	<path class="st0" d="M477.7,114c-93.7,0-149.9,57.2-149.9,128c0,70.7,56.1,127.9,149.9,127.9c93.7,0,149.9-57.3,149.9-127.9
		C627.7,171.3,571.4,114,477.7,114 M477.7,342.5c-44.9,0-79.1-45.1-79.1-100.5c0-55.6,34.1-100.6,79.1-100.6
		c45,0,79.1,45,79.1,100.6C556.8,297.4,522.7,342.5,477.7,342.5 M897.9,122.9H640.4v28.7H739v208h74.4v-208h84.5L897.9,122.9z
		 M1180,122.9H922.6v28.7h84.4v208h74.2v-208h98.8L1180,122.9z M194.2,331.2c-7.8,0-14.2-6.3-14.2-14.1V122.9h-71.3v208.4
		c0,15.5,12.7,28.1,28.4,28.1h182.3v-28.2L194.2,331.2L194.2,331.2z M1294,151.1h137.3v-28.3h-194.5c-15.7,0-28.4,13.1-28.4,28.5
		v180c0,15.5,12.8,28.1,28.4,28.1h194.5v-27.9H1294c-7.8,0-14.2-6.2-14.2-14.1v-69.7h149.4v-27.6h-149.4v-54.9
		C1279.9,157.5,1286.2,151.1,1294,151.1"/>
</g>
</svg>
