<?xml version="1.0" encoding="utf-8"?>
<!-- Generator: Adobe Illustrator 25.0.0, SVG Export Plug-In . SVG Version: 6.00 Build 0)  -->
<svg version="1.1" xmlns="http://www.w3.org/2000/svg" xmlns:xlink="http://www.w3.org/1999/xlink" x="0px" y="0px"
	 viewBox="0 0 369.04 127.33" style="enable-background:new 0 0 369.04 127.33;" xml:space="preserve">
<style type="text/css">
	.st0{fill:#FFFFFF;}
	.st1{fill:#1D2C67;stroke:#1D2C67;stroke-width:3;stroke-miterlimit:10;}
	.st2{fill:#1D2C67;stroke:#1D2C67;stroke-miterlimit:10;}
</style>
<g id="图层_2">
	<rect class="st0" width="369.04" height="127.33"/>
</g>
<g id="图层_1">
	<path class="st1" d="M12.51,60.41l14.64-1.28c0.88,4.43,2.67,7.68,5.36,9.76c2.7,2.08,6.33,3.12,10.91,3.12
		c4.85,0,8.5-0.92,10.96-2.77c2.46-1.85,3.69-4.01,3.69-6.48c0-1.59-0.52-2.94-1.55-4.06c-1.03-1.12-2.84-2.09-5.42-2.91
		c-1.76-0.55-5.78-1.53-12.05-2.93c-8.07-1.8-13.73-4.02-16.98-6.64c-4.58-3.7-6.86-8.2-6.86-13.52c0-3.42,1.08-6.62,3.23-9.6
		c2.15-2.98,5.25-5.25,9.31-6.81c4.05-1.56,8.94-2.34,14.67-2.34c9.36,0,16.4,1.85,21.13,5.55c4.73,3.7,7.21,8.63,7.45,14.8
		l-15.05,0.6c-0.64-3.45-2.03-5.93-4.14-7.45c-2.12-1.51-5.3-2.27-9.53-2.27c-4.37,0-7.8,0.81-10.27,2.43
		c-1.59,1.04-2.39,2.43-2.39,4.17c0,1.59,0.75,2.95,2.24,4.08c1.9,1.44,6.51,2.93,13.83,4.49c7.32,1.56,12.74,3.17,16.25,4.83
		c3.51,1.67,6.25,3.94,8.24,6.83c1.98,2.89,2.97,6.45,2.97,10.7c0,3.85-1.19,7.45-3.56,10.82c-2.37,3.36-5.73,5.86-10.07,7.49
		c-4.34,1.63-9.75,2.45-16.22,2.45c-9.42,0-16.66-1.96-21.71-5.89C16.51,73.65,13.5,67.93,12.51,60.41z"/>
	<path class="st1" d="M85.78,82.27V15.09h55.27v11.37h-40.22v14.89h37.42v11.32h-37.42v18.29h41.64v11.32H85.78z"/>
	<path class="st1" d="M155.39,82.27V15.09h14.64l30.51,44.87V15.09h13.98v67.18h-15.1l-30.05-43.81v43.81H155.39z"/>
	<path class="st1" d="M226.63,60.41l14.64-1.28c0.88,4.43,2.67,7.68,5.36,9.76c2.69,2.08,6.33,3.12,10.91,3.12
		c4.85,0,8.5-0.92,10.96-2.77c2.46-1.85,3.69-4.01,3.69-6.48c0-1.59-0.52-2.94-1.55-4.06c-1.03-1.12-2.84-2.09-5.42-2.91
		c-1.76-0.55-5.78-1.53-12.05-2.93c-8.07-1.8-13.73-4.02-16.98-6.64c-4.58-3.7-6.86-8.2-6.86-13.52c0-3.42,1.08-6.62,3.23-9.6
		c2.15-2.98,5.25-5.25,9.3-6.81c4.05-1.56,8.94-2.34,14.67-2.34c9.36,0,16.4,1.85,21.13,5.55c4.73,3.7,7.21,8.63,7.45,14.8
		l-15.05,0.6c-0.64-3.45-2.03-5.93-4.14-7.45c-2.12-1.51-5.3-2.27-9.53-2.27c-4.37,0-7.8,0.81-10.27,2.43
		c-1.59,1.04-2.39,2.43-2.39,4.17c0,1.59,0.75,2.95,2.24,4.08c1.9,1.44,6.51,2.93,13.83,4.49c7.32,1.56,12.74,3.17,16.25,4.83
		c3.51,1.67,6.25,3.94,8.24,6.83c1.98,2.89,2.97,6.45,2.97,10.7c0,3.85-1.19,7.45-3.56,10.82c-2.37,3.36-5.73,5.86-10.07,7.49
		c-4.34,1.63-9.75,2.45-16.22,2.45c-9.42,0-16.66-1.96-21.71-5.89C230.63,73.65,227.61,67.93,226.63,60.41z"/>
	<path class="st1" d="M299.9,82.27V15.09h55.27v11.37h-40.22v14.89h37.42v11.32h-37.42v18.29h41.64v11.32H299.9z"/>
	<path class="st2" d="M18.55,117.54l-6.04-19.73h3.46l3.14,11.39l1.17,4.24c0.05-0.21,0.39-1.57,1.02-4.07l3.14-11.56h3.44
		l2.95,11.44l0.98,3.77l1.13-3.81l3.38-11.41h3.25l-6.17,19.73h-3.47l-3.14-11.82l-0.76-3.36l-3.99,15.18H18.55z"/>
	<path class="st2" d="M46.03,117.54l-6.04-19.73h3.46l3.14,11.39l1.17,4.24c0.05-0.21,0.39-1.57,1.02-4.07l3.14-11.56h3.44
		l2.95,11.44l0.98,3.77l1.13-3.81l3.38-11.41h3.25l-6.17,19.73h-3.47l-3.14-11.82l-0.76-3.36l-3.99,15.18H46.03z"/>
	<path class="st2" d="M73.51,117.54l-6.04-19.73h3.46l3.14,11.39l1.17,4.24c0.05-0.21,0.39-1.57,1.02-4.07l3.14-11.56h3.44
		l2.95,11.44l0.98,3.77l1.13-3.81l3.38-11.41h3.25l-6.17,19.73h-3.47l-3.14-11.82l-0.76-3.36L77,117.54H73.51z"/>
	<path class="st2" d="M96.19,117.54v-3.81H100v3.81H96.19z"/>
	<path class="st2" d="M104.48,111.65l3.31-0.52c0.19,1.33,0.7,2.34,1.55,3.05c0.85,0.71,2.03,1.06,3.56,1.06
		c1.54,0,2.68-0.31,3.42-0.94c0.74-0.63,1.11-1.36,1.11-2.2c0-0.76-0.33-1.35-0.98-1.78c-0.46-0.3-1.6-0.67-3.42-1.13
		c-2.45-0.62-4.15-1.15-5.1-1.61c-0.95-0.45-1.67-1.08-2.15-1.88c-0.49-0.8-0.73-1.68-0.73-2.65c0-0.88,0.2-1.69,0.6-2.44
		c0.4-0.75,0.95-1.37,1.64-1.87c0.52-0.38,1.23-0.71,2.13-0.98s1.86-0.4,2.89-0.4c1.55,0,2.91,0.22,4.08,0.67
		c1.17,0.45,2.03,1.05,2.59,1.81c0.56,0.76,0.94,1.78,1.15,3.06l-3.27,0.45c-0.15-1.02-0.58-1.81-1.29-2.38
		c-0.71-0.57-1.72-0.85-3.02-0.85c-1.54,0-2.63,0.25-3.29,0.76c-0.66,0.51-0.98,1.1-0.98,1.78c0,0.43,0.14,0.82,0.41,1.17
		c0.27,0.36,0.7,0.66,1.28,0.89c0.33,0.12,1.32,0.41,2.95,0.85c2.37,0.63,4.02,1.15,4.95,1.55c0.93,0.4,1.67,0.99,2.2,1.76
		c0.53,0.77,0.8,1.72,0.8,2.86c0,1.11-0.33,2.16-0.98,3.15c-0.65,0.98-1.59,1.75-2.81,2.29s-2.61,0.81-4.16,0.81
		c-2.56,0-4.52-0.53-5.86-1.6C105.7,115.33,104.85,113.75,104.48,111.65z"/>
	<path class="st2" d="M138.34,111.19l3.46,0.43c-0.55,2.02-1.55,3.59-3.03,4.7c-1.47,1.11-3.36,1.67-5.65,1.67
		c-2.89,0-5.17-0.89-6.86-2.67c-1.69-1.78-2.54-4.27-2.54-7.48c0-3.32,0.85-5.9,2.56-7.73c1.71-1.83,3.93-2.75,6.65-2.75
		c2.64,0,4.79,0.9,6.47,2.69c1.67,1.8,2.51,4.32,2.51,7.58c0,0.2-0.01,0.5-0.02,0.89h-14.71c0.12,2.17,0.74,3.83,1.84,4.98
		c1.1,1.15,2.48,1.73,4.12,1.73c1.23,0,2.27-0.32,3.14-0.97C137.15,113.63,137.83,112.6,138.34,111.19z M127.36,105.78h11.02
		c-0.15-1.66-0.57-2.9-1.26-3.73c-1.07-1.29-2.45-1.93-4.14-1.93c-1.54,0-2.83,0.51-3.87,1.54
		C128.05,102.69,127.47,104.06,127.36,105.78z"/>
	<path class="st2" d="M146,117.54V97.81h3.01v2.81c1.45-2.17,3.54-3.25,6.28-3.25c1.19,0,2.28,0.21,3.28,0.64
		c1,0.43,1.74,0.99,2.24,1.68c0.5,0.69,0.84,1.52,1.04,2.47c0.12,0.62,0.19,1.7,0.19,3.25v12.13h-3.34v-12
		c0-1.36-0.13-2.38-0.39-3.06c-0.26-0.67-0.72-1.21-1.38-1.62c-0.66-0.4-1.44-0.6-2.33-0.6c-1.42,0-2.65,0.45-3.69,1.36
		c-1.03,0.9-1.55,2.62-1.55,5.15v10.78H146z"/>
	<path class="st2" d="M165.82,111.65l3.31-0.52c0.19,1.33,0.7,2.34,1.55,3.05c0.85,0.71,2.03,1.06,3.56,1.06
		c1.54,0,2.67-0.31,3.42-0.94c0.74-0.63,1.11-1.36,1.11-2.2c0-0.76-0.33-1.35-0.98-1.78c-0.46-0.3-1.6-0.67-3.42-1.13
		c-2.45-0.62-4.15-1.15-5.1-1.61c-0.95-0.45-1.67-1.08-2.16-1.88c-0.49-0.8-0.73-1.68-0.73-2.65c0-0.88,0.2-1.69,0.6-2.44
		c0.4-0.75,0.95-1.37,1.64-1.87c0.52-0.38,1.23-0.71,2.13-0.98s1.86-0.4,2.89-0.4c1.55,0,2.91,0.22,4.08,0.67
		c1.17,0.45,2.03,1.05,2.59,1.81c0.56,0.76,0.94,1.78,1.15,3.06l-3.27,0.45c-0.15-1.02-0.58-1.81-1.29-2.38
		c-0.71-0.57-1.72-0.85-3.02-0.85c-1.54,0-2.63,0.25-3.29,0.76s-0.98,1.1-0.98,1.78c0,0.43,0.14,0.82,0.41,1.17
		c0.27,0.36,0.7,0.66,1.28,0.89c0.33,0.12,1.32,0.41,2.95,0.85c2.37,0.63,4.02,1.15,4.95,1.55c0.94,0.4,1.67,0.99,2.2,1.76
		c0.53,0.77,0.8,1.72,0.8,2.86c0,1.11-0.33,2.16-0.98,3.15c-0.65,0.98-1.59,1.75-2.81,2.29s-2.61,0.81-4.16,0.81
		c-2.56,0-4.52-0.53-5.86-1.6S166.19,113.75,165.82,111.65z"/>
	<path class="st2" d="M199.69,111.19l3.46,0.43c-0.55,2.02-1.55,3.59-3.03,4.7c-1.47,1.11-3.36,1.67-5.65,1.67
		c-2.89,0-5.17-0.89-6.86-2.67c-1.69-1.78-2.54-4.27-2.54-7.48c0-3.32,0.85-5.9,2.56-7.73c1.71-1.83,3.93-2.75,6.65-2.75
		c2.64,0,4.79,0.9,6.47,2.69c1.67,1.8,2.51,4.32,2.51,7.58c0,0.2-0.01,0.5-0.02,0.89h-14.71c0.12,2.17,0.74,3.83,1.84,4.98
		c1.1,1.15,2.48,1.73,4.12,1.73c1.23,0,2.27-0.32,3.14-0.97C198.49,113.63,199.18,112.6,199.69,111.19z M188.71,105.78h11.02
		c-0.15-1.66-0.57-2.9-1.26-3.73c-1.07-1.29-2.45-1.93-4.14-1.93c-1.54,0-2.83,0.51-3.87,1.54
		C189.4,102.69,188.82,104.06,188.71,105.78z"/>
	<path class="st2" d="M206.04,109.37v-3.36h10.27v3.36H206.04z"/>
	<path class="st2" d="M232.89,110.32l3.29,0.43c-0.36,2.27-1.28,4.04-2.76,5.32c-1.48,1.28-3.3,1.92-5.45,1.92
		c-2.7,0-4.87-0.88-6.51-2.65c-1.64-1.76-2.46-4.29-2.46-7.59c0-2.13,0.35-3.99,1.06-5.59c0.71-1.6,1.78-2.8,3.22-3.59
		c1.44-0.8,3.01-1.2,4.71-1.2c2.14,0,3.89,0.54,5.26,1.63c1.36,1.08,2.24,2.62,2.62,4.62l-3.25,0.5c-0.31-1.32-0.86-2.32-1.64-2.99
		c-0.79-0.67-1.74-1-2.85-1c-1.68,0-3.05,0.6-4.11,1.81c-1.05,1.21-1.58,3.12-1.58,5.73c0,2.65,0.51,4.58,1.52,5.78
		c1.02,1.2,2.34,1.8,3.98,1.8c1.31,0,2.41-0.4,3.29-1.21C232.09,113.23,232.65,111.99,232.89,110.32z"/>
	<path class="st2" d="M239.04,117.54V90.31h3.34v9.77c1.56-1.81,3.53-2.71,5.91-2.71c1.46,0,2.73,0.29,3.81,0.86
		s1.85,1.37,2.31,2.39c0.46,1.02,0.7,2.49,0.7,4.42v12.5h-3.34v-12.5c0-1.67-0.36-2.89-1.09-3.65c-0.72-0.76-1.75-1.14-3.07-1.14
		c-0.99,0-1.92,0.26-2.8,0.77c-0.87,0.51-1.5,1.21-1.87,2.09c-0.37,0.88-0.56,2.09-0.56,3.64v10.79H239.04z"/>
	<path class="st2" d="M260.21,94.15v-3.85h3.34v3.85H260.21z M260.21,117.54V97.81h3.34v19.73H260.21z"/>
	<path class="st2" d="M268.65,117.54V97.81h3.01v2.81c1.45-2.17,3.54-3.25,6.28-3.25c1.19,0,2.28,0.21,3.28,0.64
		c1,0.43,1.74,0.99,2.24,1.68s0.84,1.52,1.04,2.47c0.12,0.62,0.19,1.7,0.19,3.25v12.13h-3.34v-12c0-1.36-0.13-2.38-0.39-3.06
		c-0.26-0.67-0.72-1.21-1.38-1.62c-0.66-0.4-1.44-0.6-2.33-0.6c-1.42,0-2.65,0.45-3.69,1.36c-1.03,0.9-1.55,2.62-1.55,5.15v10.78
		H268.65z"/>
	<path class="st2" d="M302.68,115.11c-1.24,1.05-2.43,1.8-3.58,2.23c-1.15,0.43-2.37,0.65-3.69,0.65c-2.17,0-3.83-0.53-5-1.59
		c-1.16-1.06-1.75-2.41-1.75-4.06c0-0.97,0.22-1.85,0.66-2.65c0.44-0.8,1.02-1.44,1.73-1.92c0.71-0.48,1.51-0.85,2.41-1.1
		c0.66-0.17,1.65-0.34,2.97-0.5c2.7-0.32,4.69-0.71,5.96-1.15c0.01-0.46,0.02-0.75,0.02-0.87c0-1.36-0.32-2.32-0.95-2.88
		c-0.85-0.76-2.12-1.13-3.81-1.13c-1.57,0-2.73,0.28-3.48,0.83c-0.75,0.55-1.3,1.53-1.66,2.93l-3.27-0.45
		c0.3-1.4,0.79-2.53,1.47-3.39c0.68-0.86,1.67-1.52,2.95-1.99c1.29-0.46,2.78-0.7,4.48-0.7c1.68,0,3.05,0.2,4.11,0.59
		c1.05,0.4,1.83,0.89,2.32,1.5c0.5,0.6,0.84,1.36,1.04,2.28c0.11,0.57,0.17,1.6,0.17,3.08v4.46c0,3.11,0.07,5.08,0.21,5.9
		c0.14,0.82,0.42,1.61,0.85,2.37h-3.49C303.01,116.85,302.78,116.04,302.68,115.11z M302.41,107.64c-1.21,0.5-3.03,0.92-5.46,1.26
		c-1.38,0.2-2.35,0.42-2.92,0.67c-0.57,0.25-1.01,0.61-1.32,1.09c-0.31,0.48-0.46,1.01-0.46,1.59c0,0.89,0.34,1.63,1.01,2.23
		c0.67,0.59,1.66,0.89,2.96,0.89c1.29,0,2.43-0.28,3.44-0.85c1-0.56,1.74-1.33,2.21-2.31c0.36-0.76,0.54-1.87,0.54-3.34V107.64z"/>
	<path class="st2" d="M311.92,117.54v-3.81h3.81v3.81H311.92z"/>
	<path class="st2" d="M334.42,110.32l3.29,0.43c-0.36,2.27-1.28,4.04-2.76,5.32c-1.48,1.28-3.3,1.92-5.45,1.92
		c-2.7,0-4.87-0.88-6.51-2.65c-1.64-1.76-2.46-4.29-2.46-7.59c0-2.13,0.35-3.99,1.06-5.59c0.71-1.6,1.78-2.8,3.22-3.59
		c1.44-0.8,3.01-1.2,4.71-1.2c2.14,0,3.89,0.54,5.26,1.63c1.36,1.08,2.24,2.62,2.62,4.62l-3.25,0.5c-0.31-1.32-0.86-2.32-1.64-2.99
		c-0.79-0.67-1.74-1-2.85-1c-1.68,0-3.05,0.6-4.11,1.81c-1.05,1.21-1.58,3.12-1.58,5.73c0,2.65,0.51,4.58,1.52,5.78
		c1.02,1.2,2.34,1.8,3.98,1.8c1.31,0,2.41-0.4,3.29-1.21C333.62,113.23,334.18,111.99,334.42,110.32z"/>
	<path class="st2" d="M340.56,117.54V97.81h3.01v2.81c1.45-2.17,3.54-3.25,6.28-3.25c1.19,0,2.28,0.21,3.28,0.64
		c1,0.43,1.74,0.99,2.24,1.68s0.84,1.52,1.04,2.47c0.12,0.62,0.19,1.7,0.19,3.25v12.13h-3.34v-12c0-1.36-0.13-2.38-0.39-3.06
		c-0.26-0.67-0.72-1.21-1.38-1.62c-0.66-0.4-1.44-0.6-2.33-0.6c-1.42,0-2.65,0.45-3.69,1.36c-1.03,0.9-1.55,2.62-1.55,5.15v10.78
		H340.56z"/>
</g>
</svg>
