<?xml version="1.0" encoding="utf-8"?>
<!-- Generator: Adobe Illustrator 25.0.0, SVG Export Plug-In . SVG Version: 6.00 Build 0)  -->
<svg version="1.1" id="图层_1" xmlns="http://www.w3.org/2000/svg" xmlns:xlink="http://www.w3.org/1999/xlink" x="0px" y="0px"
	 viewBox="0 0 369 127.3" style="enable-background:new 0 0 369 127.3;" xml:space="preserve">
<style type="text/css">
	.st0{fill:#FFFFFF;}
	.st1{fill:#000091;stroke:#000091;stroke-miterlimit:10;}
</style>
<g id="图层_2_1_">
	<rect y="0" class="st0" width="369" height="127.3"/>
</g>
<g id="图层_1_1_">
	<path class="st1" d="M12.5,60.4l14.6-1.3c0.9,4.4,2.7,7.7,5.4,9.8C35.2,71,38.8,72,43.4,72c4.8,0,8.5-0.9,11-2.8s3.7-4,3.7-6.5
		c0-1.6-0.5-2.9-1.5-4.1c-1-1.1-2.8-2.1-5.4-2.9c-1.8-0.5-5.8-1.5-12-2.9c-8.1-1.8-13.7-4-17-6.6c-4.6-3.7-6.9-8.2-6.9-13.5
		c0-3.4,1.1-6.6,3.2-9.6s5.2-5.2,9.3-6.8c4-1.6,8.9-2.3,14.7-2.3c9.4,0,16.4,1.9,21.1,5.5c4.7,3.7,7.2,8.6,7.4,14.8l-15,0.6
		c-0.6-3.5-2-5.9-4.1-7.5c-2.1-1.5-5.3-2.3-9.5-2.3c-4.4,0-7.8,0.8-10.3,2.4c-1.6,1-2.4,2.4-2.4,4.2c0,1.6,0.8,2.9,2.2,4.1
		c1.9,1.4,6.5,2.9,13.8,4.5c7.3,1.6,12.7,3.2,16.2,4.8c3.5,1.7,6.2,3.9,8.2,6.8c2,2.9,3,6.5,3,10.7c0,3.9-1.2,7.5-3.6,10.8
		c-2.4,3.4-5.7,5.9-10.1,7.5s-9.8,2.4-16.2,2.4c-9.4,0-16.7-2-21.7-5.9C16.5,73.7,13.5,67.9,12.5,60.4z"/>
	<path class="st1" d="M85.8,82.3V15.1h55.3v11.4h-40.2v14.9h37.4v11.3h-37.4V71h41.6v11.3L85.8,82.3L85.8,82.3z"/>
	<path class="st1" d="M155.4,82.3V15.1H170L200.5,60V15.1h14v67.2h-15.1l-30.1-43.8v43.8C169.4,82.3,155.4,82.3,155.4,82.3z"/>
	<path class="st1" d="M226.6,60.4l14.6-1.3c0.9,4.4,2.7,7.7,5.4,9.8S253,72,257.5,72c4.9,0,8.5-0.9,11-2.8s3.7-4,3.7-6.5
		c0-1.6-0.5-2.9-1.5-4.1c-1-1.1-2.8-2.1-5.4-2.9c-1.8-0.5-5.8-1.5-12.1-2.9c-8.1-1.8-13.7-4-17-6.6c-4.6-3.7-6.9-8.2-6.9-13.5
		c0-3.4,1.1-6.6,3.2-9.6s5.2-5.2,9.3-6.8s8.9-2.3,14.7-2.3c9.4,0,16.4,1.9,21.1,5.5s7.2,8.6,7.5,14.8l-15,0.6
		c-0.6-3.5-2-5.9-4.1-7.5c-2.1-1.5-5.3-2.3-9.5-2.3c-4.4,0-7.8,0.8-10.3,2.4c-1.6,1-2.4,2.4-2.4,4.2c0,1.6,0.8,2.9,2.2,4.1
		c1.9,1.4,6.5,2.9,13.8,4.5c7.3,1.6,12.7,3.2,16.2,4.8c3.5,1.7,6.2,3.9,8.2,6.8c2,2.9,3,6.5,3,10.7c0,3.9-1.2,7.5-3.6,10.8
		c-2.4,3.4-5.7,5.9-10.1,7.5s-9.8,2.4-16.2,2.4c-9.4,0-16.7-2-21.7-5.9C230.6,73.7,227.6,67.9,226.6,60.4z"/>
	<path class="st1" d="M299.9,82.3V15.1h55.3v11.4h-40.2v14.9h37.4v11.3H315V71h41.6v11.3L299.9,82.3L299.9,82.3z"/>
	<path class="st1" d="M18.5,117.5l-6-19.7H16l3.1,11.4l1.2,4.2c0-0.2,0.4-1.6,1-4.1l3.1-11.6h3.4l3,11.4l1,3.8l1.1-3.8l3.4-11.4h3.2
		l-6.2,19.7h-3.5l-3.1-11.8l-0.8-3.4l-4,15.2L18.5,117.5L18.5,117.5z"/>
	<path class="st1" d="M46,117.5l-6-19.7h3.5l3.1,11.4l1.2,4.2c0-0.2,0.4-1.6,1-4.1l3.1-11.6h3.4l3,11.4l1,3.8l1.1-3.8l3.4-11.4H67
		l-6.2,19.7h-3.5l-3.1-11.8l-0.8-3.4l-4,15.2L46,117.5L46,117.5z"/>
	<path class="st1" d="M73.5,117.5l-6-19.7h3.5l3.1,11.4l1.2,4.2c0.1-0.2,0.4-1.6,1-4.1l3.1-11.6h3.4l2.9,11.4l1,3.8l1.1-3.8
		l3.4-11.4h3.2l-6.2,19.7h-3.5l-3.1-11.8l-0.8-3.4l-4,15.2H73.5z"/>
	<path class="st1" d="M96.2,117.5v-3.8h3.8v3.8H96.2z"/>
	<path class="st1" d="M104.5,111.7l3.3-0.5c0.2,1.3,0.7,2.3,1.6,3.1c0.8,0.7,2,1.1,3.6,1.1c1.5,0,2.7-0.3,3.4-0.9
		c0.7-0.6,1.1-1.4,1.1-2.2c0-0.8-0.3-1.3-1-1.8c-0.5-0.3-1.6-0.7-3.4-1.1c-2.4-0.6-4.2-1.2-5.1-1.6c-0.9-0.4-1.7-1.1-2.2-1.9
		c-0.5-0.8-0.7-1.7-0.7-2.7c0-0.9,0.2-1.7,0.6-2.4s0.9-1.4,1.6-1.9c0.5-0.4,1.2-0.7,2.1-1s1.9-0.4,2.9-0.4c1.6,0,2.9,0.2,4.1,0.7
		s2,1.1,2.6,1.8c0.6,0.8,0.9,1.8,1.2,3.1l-3.3,0.4c-0.2-1-0.6-1.8-1.3-2.4s-1.7-0.8-3-0.8c-1.5,0-2.6,0.2-3.3,0.8s-1,1.1-1,1.8
		c0,0.4,0.1,0.8,0.4,1.2c0.3,0.4,0.7,0.7,1.3,0.9c0.3,0.1,1.3,0.4,2.9,0.8c2.4,0.6,4,1.2,4.9,1.6s1.7,1,2.2,1.8
		c0.5,0.8,0.8,1.7,0.8,2.9c0,1.1-0.3,2.2-1,3.2c-0.7,1-1.6,1.8-2.8,2.3s-2.6,0.8-4.2,0.8c-2.6,0-4.5-0.5-5.9-1.6
		C105.7,115.3,104.8,113.8,104.5,111.7z"/>
	<path class="st1" d="M138.3,111.2l3.5,0.4c-0.6,2-1.6,3.6-3,4.7c-1.5,1.1-3.4,1.7-5.6,1.7c-2.9,0-5.2-0.9-6.9-2.7s-2.5-4.3-2.5-7.5
		c0-3.3,0.8-5.9,2.6-7.7s3.9-2.8,6.7-2.8c2.6,0,4.8,0.9,6.5,2.7c1.7,1.8,2.5,4.3,2.5,7.6c0,0.2,0,0.5,0,0.9h-14.7
		c0.1,2.2,0.7,3.8,1.8,5s2.5,1.7,4.1,1.7c1.2,0,2.3-0.3,3.1-1C137.1,113.6,137.8,112.6,138.3,111.2z M127.4,105.8h11
		c-0.1-1.7-0.6-2.9-1.3-3.7c-1.1-1.3-2.4-1.9-4.1-1.9c-1.5,0-2.8,0.5-3.9,1.5C128.1,102.7,127.5,104.1,127.4,105.8z"/>
	<path class="st1" d="M146,117.5V97.8h3v2.8c1.4-2.2,3.5-3.2,6.3-3.2c1.2,0,2.3,0.2,3.3,0.6s1.7,1,2.2,1.7s0.8,1.5,1,2.5
		c0.1,0.6,0.2,1.7,0.2,3.2v12.1h-3.3v-12c0-1.4-0.1-2.4-0.4-3.1c-0.3-0.7-0.7-1.2-1.4-1.6c-0.7-0.4-1.4-0.6-2.3-0.6
		c-1.4,0-2.6,0.4-3.7,1.4c-1,0.9-1.6,2.6-1.6,5.2v10.8L146,117.5L146,117.5z"/>
	<path class="st1" d="M165.8,111.7l3.3-0.5c0.2,1.3,0.7,2.3,1.6,3.1c0.9,0.7,2,1.1,3.6,1.1c1.5,0,2.7-0.3,3.4-0.9
		c0.7-0.6,1.1-1.4,1.1-2.2c0-0.8-0.3-1.3-1-1.8c-0.5-0.3-1.6-0.7-3.4-1.1c-2.4-0.6-4.1-1.2-5.1-1.6c-0.9-0.4-1.7-1.1-2.2-1.9
		c-0.5-0.8-0.7-1.7-0.7-2.7c0-0.9,0.2-1.7,0.6-2.4c0.4-0.8,0.9-1.4,1.6-1.9c0.5-0.4,1.2-0.7,2.1-1s1.9-0.4,2.9-0.4
		c1.6,0,2.9,0.2,4.1,0.7s2,1.1,2.6,1.8c0.6,0.8,0.9,1.8,1.1,3.1l-3.3,0.4c-0.1-1-0.6-1.8-1.3-2.4c-0.7-0.6-1.7-0.8-3-0.8
		c-1.5,0-2.6,0.2-3.3,0.8s-1,1.1-1,1.8c0,0.4,0.1,0.8,0.4,1.2c0.3,0.4,0.7,0.7,1.3,0.9c0.3,0.1,1.3,0.4,2.9,0.8
		c2.4,0.6,4,1.2,4.9,1.6c0.9,0.4,1.7,1,2.2,1.8c0.5,0.8,0.8,1.7,0.8,2.9c0,1.1-0.3,2.2-1,3.2c-0.6,1-1.6,1.8-2.8,2.3
		s-2.6,0.8-4.2,0.8c-2.6,0-4.5-0.5-5.9-1.6S166.2,113.8,165.8,111.7z"/>
	<path class="st1" d="M199.7,111.2l3.5,0.4c-0.6,2-1.6,3.6-3,4.7c-1.5,1.1-3.4,1.7-5.6,1.7c-2.9,0-5.2-0.9-6.9-2.7s-2.5-4.3-2.5-7.5
		c0-3.3,0.9-5.9,2.6-7.7c1.7-1.8,3.9-2.8,6.6-2.8c2.6,0,4.8,0.9,6.5,2.7c1.7,1.8,2.5,4.3,2.5,7.6c0,0.2,0,0.5,0,0.9h-14.7
		c0.1,2.2,0.7,3.8,1.8,5c1.1,1.2,2.5,1.7,4.1,1.7c1.2,0,2.3-0.3,3.1-1C198.5,113.6,199.2,112.6,199.7,111.2z M188.7,105.8h11
		c-0.1-1.7-0.6-2.9-1.3-3.7c-1.1-1.3-2.4-1.9-4.1-1.9c-1.5,0-2.8,0.5-3.9,1.5C189.4,102.7,188.8,104.1,188.7,105.8z"/>
	<path class="st1" d="M206,109.4V106h10.3v3.4H206z"/>
	<path class="st1" d="M232.9,110.3l3.3,0.4c-0.4,2.3-1.3,4-2.8,5.3s-3.3,1.9-5.4,1.9c-2.7,0-4.9-0.9-6.5-2.7
		c-1.6-1.8-2.5-4.3-2.5-7.6c0-2.1,0.4-4,1.1-5.6c0.7-1.6,1.8-2.8,3.2-3.6c1.4-0.8,3-1.2,4.7-1.2c2.1,0,3.9,0.5,5.3,1.6
		c1.4,1.1,2.2,2.6,2.6,4.6l-3.2,0.5c-0.3-1.3-0.9-2.3-1.6-3c-0.8-0.7-1.7-1-2.9-1c-1.7,0-3.1,0.6-4.1,1.8c-1.1,1.2-1.6,3.1-1.6,5.7
		c0,2.7,0.5,4.6,1.5,5.8c1,1.2,2.3,1.8,4,1.8c1.3,0,2.4-0.4,3.3-1.2C232.1,113.2,232.6,112,232.9,110.3z"/>
	<path class="st1" d="M239,117.5V90.3h3.3v9.8c1.6-1.8,3.5-2.7,5.9-2.7c1.5,0,2.7,0.3,3.8,0.9s1.9,1.4,2.3,2.4
		c0.5,1,0.7,2.5,0.7,4.4v12.5h-3.3V105c0-1.7-0.4-2.9-1.1-3.7c-0.7-0.8-1.8-1.1-3.1-1.1c-1,0-1.9,0.3-2.8,0.8
		c-0.9,0.5-1.5,1.2-1.9,2.1s-0.6,2.1-0.6,3.6v10.8C242.4,117.5,239,117.5,239,117.5z"/>
	<path class="st1" d="M260.2,94.2v-3.8h3.3v3.8H260.2z M260.2,117.5V97.8h3.3v19.7C263.5,117.5,260.2,117.5,260.2,117.5z"/>
	<path class="st1" d="M268.6,117.5V97.8h3v2.8c1.5-2.2,3.5-3.2,6.3-3.2c1.2,0,2.3,0.2,3.3,0.6s1.7,1,2.2,1.7s0.8,1.5,1,2.5
		c0.1,0.6,0.2,1.7,0.2,3.2v12.1h-3.3v-12c0-1.4-0.1-2.4-0.4-3.1c-0.3-0.7-0.7-1.2-1.4-1.6c-0.7-0.4-1.4-0.6-2.3-0.6
		c-1.4,0-2.6,0.4-3.7,1.4c-1,0.9-1.5,2.6-1.5,5.2v10.8L268.6,117.5L268.6,117.5z"/>
	<path class="st1" d="M302.7,115.1c-1.2,1.1-2.4,1.8-3.6,2.2s-2.4,0.7-3.7,0.7c-2.2,0-3.8-0.5-5-1.6c-1.2-1.1-1.8-2.4-1.8-4.1
		c0-1,0.2-1.8,0.7-2.7s1-1.4,1.7-1.9c0.7-0.5,1.5-0.8,2.4-1.1c0.7-0.2,1.6-0.3,3-0.5c2.7-0.3,4.7-0.7,6-1.2c0-0.5,0-0.8,0-0.9
		c0-1.4-0.3-2.3-1-2.9c-0.9-0.8-2.1-1.1-3.8-1.1c-1.6,0-2.7,0.3-3.5,0.8s-1.3,1.5-1.7,2.9l-3.3-0.4c0.3-1.4,0.8-2.5,1.5-3.4
		s1.7-1.5,3-2c1.3-0.5,2.8-0.7,4.5-0.7c1.7,0,3,0.2,4.1,0.6c1,0.4,1.8,0.9,2.3,1.5c0.5,0.6,0.8,1.4,1,2.3c0.1,0.6,0.2,1.6,0.2,3.1
		v4.5c0,3.1,0.1,5.1,0.2,5.9c0.1,0.8,0.4,1.6,0.9,2.4h-3.5C303,116.8,302.8,116,302.7,115.1z M302.4,107.6c-1.2,0.5-3,0.9-5.5,1.3
		c-1.4,0.2-2.4,0.4-2.9,0.7s-1,0.6-1.3,1.1c-0.3,0.5-0.5,1-0.5,1.6c0,0.9,0.3,1.6,1,2.2c0.7,0.6,1.7,0.9,3,0.9
		c1.3,0,2.4-0.3,3.4-0.8c1-0.6,1.7-1.3,2.2-2.3c0.4-0.8,0.5-1.9,0.5-3.3V107.6z"/>
	<path class="st1" d="M311.9,117.5v-3.8h3.8v3.8H311.9z"/>
	<path class="st1" d="M334.4,110.3l3.3,0.4c-0.4,2.3-1.3,4-2.8,5.3s-3.3,1.9-5.5,1.9c-2.7,0-4.9-0.9-6.5-2.7
		c-1.6-1.8-2.5-4.3-2.5-7.6c0-2.1,0.4-4,1.1-5.6s1.8-2.8,3.2-3.6c1.4-0.8,3-1.2,4.7-1.2c2.1,0,3.9,0.5,5.3,1.6
		c1.4,1.1,2.2,2.6,2.6,4.6l-3.2,0.5c-0.3-1.3-0.9-2.3-1.6-3c-0.8-0.7-1.7-1-2.9-1c-1.7,0-3,0.6-4.1,1.8c-1,1.2-1.6,3.1-1.6,5.7
		c0,2.7,0.5,4.6,1.5,5.8c1,1.2,2.3,1.8,4,1.8c1.3,0,2.4-0.4,3.3-1.2C333.6,113.2,334.2,112,334.4,110.3z"/>
	<path class="st1" d="M340.6,117.5V97.8h3v2.8c1.5-2.2,3.5-3.2,6.3-3.2c1.2,0,2.3,0.2,3.3,0.6s1.7,1,2.2,1.7s0.8,1.5,1,2.5
		c0.1,0.6,0.2,1.7,0.2,3.2v12.1h-3.3v-12c0-1.4-0.1-2.4-0.4-3.1c-0.3-0.7-0.7-1.2-1.4-1.6c-0.7-0.4-1.4-0.6-2.3-0.6
		c-1.4,0-2.6,0.4-3.7,1.4c-1,0.9-1.5,2.6-1.5,5.2v10.8L340.6,117.5L340.6,117.5z"/>
</g>
</svg>
